<svg xmlns="http://www.w3.org/2000/svg" viewBox="0 0 1000 800">
  <defs>
    <style>
      .title { font: bold 28px Arial; fill: #2c3e50; }
      .label { font: bold 18px Arial; fill: #2c3e50; }
      .sublabel { font: 14px Arial; fill: #555; }
      .cell-bg { fill: #f8f9fa; stroke: #dee2e6; stroke-width: 2; }
    </style>
    <radialGradient id="torso-grad" cx="50%" cy="30%">
      <stop offset="0%" style="stop-color:#f5d5c3;stop-opacity:1" />
      <stop offset="100%" style="stop-color:#d4a574;stop-opacity:1" />
    </radialGradient>
  </defs>
  
  <!-- Title -->
  <text x="500" y="40" text-anchor="middle" class="title">Breast Implant Size Chart</text>
  <text x="500" y="65" text-anchor="middle" class="sublabel">MEASUREMENTS IN CUBIC CENTIMETERS (cc)</text>
  
  <!-- 200cc Row -->
  <rect x="50" y="100" width="280" height="100" class="cell-bg"/>
  <text x="80" y="155" text-anchor="start" class="label">200cc</text>
  
  <g transform="translate(250, 150)">
    <ellipse cx="0" cy="-20" rx="30" ry="35" fill="url(#torso-grad)" stroke="#d4a574" stroke-width="2"/>
    <ellipse cx="-15" cy="-5" rx="18" ry="22" fill="none" stroke="#d4a574" stroke-width="2"/>
    <ellipse cx="15" cy="-5" rx="18" ry="22" fill="none" stroke="#d4a574" stroke-width="2"/>
    <text x="50" y="-15" text-anchor="start" class="sublabel">200cc</text>
  </g>
  
  <g transform="translate(450, 150)">
    <ellipse cx="0" cy="-20" rx="30" ry="35" fill="url(#torso-grad)" stroke="#d4a574" stroke-width="2"/>
    <ellipse cx="-12" cy="-5" rx="15" ry="18" fill="none" stroke="#d4a574" stroke-width="2"/>
    <ellipse cx="12" cy="-5" rx="15" ry="18" fill="none" stroke="#d4a574" stroke-width="2"/>
    <text x="50" y="-15" text-anchor="start" class="sublabel">100cc</text>
  </g>
  
  <g transform="translate(650, 150)">
    <ellipse cx="0" cy="-20" rx="30" ry="35" fill="url(#torso-grad)" stroke="#d4a574" stroke-width="2"/>
    <ellipse cx="-12" cy="-5" rx="15" ry="18" fill="none" stroke="#d4a574" stroke-width="2"/>
    <ellipse cx="12" cy="-5" rx="15" ry="18" fill="none" stroke="#d4a574" stroke-width="2"/>
    <text x="50" y="-15" text-anchor="start" class="sublabel">100cc</text>
  </g>
  
  <!-- 300cc Row -->
  <rect x="50" y="200" width="280" height="100" class="cell-bg"/>
  <text x="80" y="255" text-anchor="start" class="label">300cc</text>
  
  <g transform="translate(250, 250)">
    <ellipse cx="0" cy="-20" rx="30" ry="35" fill="url(#torso-grad)" stroke="#d4a574" stroke-width="2"/>
    <ellipse cx="-16" cy="-5" rx="20" ry="24" fill="none" stroke="#d4a574" stroke-width="2"/>
    <ellipse cx="16" cy="-5" rx="20" ry="24" fill="none" stroke="#d4a574" stroke-width="2"/>
    <text x="50" y="-15" text-anchor="start" class="sublabel">300cc</text>
  </g>
  
  <g transform="translate(450, 250)">
    <ellipse cx="0" cy="-20" rx="30" ry="35" fill="url(#torso-grad)" stroke="#d4a574" stroke-width="2"/>
    <ellipse cx="-12" cy="-5" rx="15" ry="18" fill="none" stroke="#d4a574" stroke-width="2"/>
    <ellipse cx="12" cy="-5" rx="15" ry="18" fill="none" stroke="#d4a574" stroke-width="2"/>
    <text x="50" y="-15" text-anchor="start" class="sublabel">100cc</text>
  </g>
  
  <g transform="translate(650, 250)">
    <ellipse cx="0" cy="-20" rx="30" ry="35" fill="url(#torso-grad)" stroke="#d4a574" stroke-width="2"/>
    <ellipse cx="-16" cy="-5" rx="19" ry="23" fill="none" stroke="#d4a574" stroke-width="2"/>
    <ellipse cx="16" cy="-5" rx="19" ry="23" fill="none" stroke="#d4a574" stroke-width="2"/>
    <text x="50" y="-15" text-anchor="start" class="sublabel">200cc</text>
  </g>
  
  <!-- 400cc Row -->
  <rect x="50" y="300" width="280" height="100" class="cell-bg"/>
  <text x="80" y="355" text-anchor="start" class="label">400cc</text>
  
  <g transform="translate(250, 350)">
    <ellipse cx="0" cy="-20" rx="30" ry="35" fill="url(#torso-grad)" stroke="#d4a574" stroke-width="2"/>
    <ellipse cx="-17" cy="-5" rx="22" ry="26" fill="none" stroke="#d4a574" stroke-width="2"/>
    <ellipse cx="17" cy="-5" rx="22" ry="26" fill="none" stroke="#d4a574" stroke-width="2"/>
    <text x="50" y="-15" text-anchor="start" class="sublabel">300cc</text>
  </g>
  
  <g transform="translate(450, 350)">
    <ellipse cx="0" cy="-20" rx="30" ry="35" fill="url(#torso-grad)" stroke="#d4a574" stroke-width="2"/>
    <ellipse cx="-18" cy="-5" rx="23" ry="28" fill="none" stroke="#d4a574" stroke-width="2"/>
    <ellipse cx="18" cy="-5" rx="23" ry="28" fill="none" stroke="#d4a574" stroke-width="2"/>
    <text x="50" y="-15" text-anchor="start" class="sublabel">400cc</text>
  </g>
  
  <g transform="translate(650, 350)">
    <ellipse cx="0" cy="-20" rx="30" ry="35" fill="url(#torso-grad)" stroke="#d4a574" stroke-width="2"/>
    <ellipse cx="-16" cy="-5" rx="19" ry="23" fill="none" stroke="#d4a574" stroke-width="2"/>
    <ellipse cx="16" cy="-5" rx="19" ry="23" fill="none" stroke="#d4a574" stroke-width="2"/>
    <text x="50" y="-15" text-anchor="start" class="sublabel">200cc</text>
  </g>
  
  <!-- 500cc Row -->
  <rect x="50" y="400" width="280" height="100" class="cell-bg"/>
  <text x="80" y="455" text-anchor="start" class="label">500cc</text>
  
  <g transform="translate(250, 450)">
    <ellipse cx="0" cy="-20" rx="30" ry="35" fill="url(#torso-grad)" stroke="#d4a574" stroke-width="2"/>
    <ellipse cx="-18" cy="-5" rx="24" ry="28" fill="none" stroke="#d4a574" stroke-width="2"/>
    <ellipse cx="18" cy="-5" rx="24" ry="28" fill="none" stroke="#d4a574" stroke-width="2"/>
    <text x="50" y="-15" text-anchor="start" class="sublabel">200cc</text>
  </g>
  
  <g transform="translate(450, 450)">
    <ellipse cx="0" cy="-20" rx="30" ry="35" fill="url(#torso-grad)" stroke="#d4a574" stroke-width="2"/>
    <ellipse cx="-18" cy="-5" rx="23" ry="28" fill="none" stroke="#d4a574" stroke-width="2"/>
    <ellipse cx="18" cy="-5" rx="23" ry="28" fill="none" stroke="#d4a574" stroke-width="2"/>
    <text x="50" y="-15" text-anchor="start" class="sublabel">400cc</text>
  </g>
  
  <g transform="translate(650, 450)">
    <ellipse cx="0" cy="-20" rx="30" ry="35" fill="url(#torso-grad)" stroke="#d4a574" stroke-width="2"/>
    <ellipse cx="-19" cy="-5" rx="25" ry="30" fill="none" stroke="#d4a574" stroke-width="2"/>
    <ellipse cx="19" cy="-5" rx="25" ry="30" fill="none" stroke="#d4a574" stroke-width="2"/>
    <text x="50" y="-15" text-anchor="start" class="sublabel">500cc</text>
  </g>
  
  <!-- 500cc Row (second) -->
  <rect x="50" y="500" width="280" height="100" class="cell-bg"/>
  <text x="80" y="555" text-anchor="start" class="label">500cc</text>
  
  <g transform="translate(250, 550)">
    <ellipse cx="0" cy="-20" rx="30" ry="35" fill="url(#torso-grad)" stroke="#d4a574" stroke-width="2"/>
    <ellipse cx="-19" cy="-5" rx="25" ry="30" fill="none" stroke="#d4a574" stroke-width="2"/>
    <ellipse cx="19" cy="-5" rx="25" ry="30" fill="none" stroke="#d4a574" stroke-width="2"/>
    <text x="50" y="-15" text-anchor="start" class="sublabel">500cc</text>
  </g>
  
  <g transform="translate(450, 550)">
    <ellipse cx="0" cy="-20" rx="30" ry="35" fill="url(#torso-grad)" stroke="#d4a574" stroke-width="2"/>
    <ellipse cx="-19" cy="-5" rx="25" ry="30" fill="none" stroke="#d4a574" stroke-width="2"/>
    <ellipse cx="19" cy="-5" rx="25" ry="30" fill="none" stroke="#d4a574" stroke-width="2"/>
    <text x="50" y="-15" text-anchor="start" class="sublabel">500cc</text>
  </g>
  
  <g transform="translate(650, 550)">
    <ellipse cx="0" cy="-20" rx="30" ry="35" fill="url(#torso-grad)" stroke="#d4a574" stroke-width="2"/>
    <ellipse cx="-19" cy="-5" rx="25" ry="30" fill="none" stroke="#d4a574" stroke-width="2"/>
    <ellipse cx="19" cy="-5" rx="25" ry="30" fill="none" stroke="#d4a574" stroke-width="2"/>
    <text x="50" y="-15" text-anchor="start" class="sublabel">500cc</text>
  </g>
  
  <!-- 600cc Row -->
  <rect x="50" y="600" width="280" height="100" class="cell-bg"/>
  <text x="80" y="655" text-anchor="start" class="label">600cc</text>
  
  <g transform="translate(250, 650)">
    <ellipse cx="0" cy="-20" rx="30" ry="35" fill="url(#torso-grad)" stroke="#d4a574" stroke-width="2"/>
    <ellipse cx="-20" cy="-5" rx="26" ry="32" fill="none" stroke="#d4a574" stroke-width="2"/>
    <ellipse cx="20" cy="-5" rx="26" ry="32" fill="none" stroke="#d4a574" stroke-width="2"/>
    <text x="50" y="-15" text-anchor="start" class="sublabel">600cc</text>
  </g>
  
  <g transform="translate(450, 650)">
    <ellipse cx="0" cy="-20" rx="30" ry="35" fill="url(#torso-grad)" stroke="#d4a574" stroke-width="2"/>
    <ellipse cx="-19" cy="-5" rx="25" ry="30" fill="none" stroke="#d4a574" stroke-width="2"/>
    <ellipse cx="19" cy="-5" rx="25" ry="30" fill="none" stroke="#d4a574" stroke-width="2"/>
    <text x="50" y="-15" text-anchor="start" class="sublabel">500cc</text>
  </g>
  
  <g transform="translate(650, 650)">
    <ellipse cx="0" cy="-20" rx="30" ry="35" fill="url(#torso-grad)" stroke="#d4a574" stroke-width="2"/>
    <ellipse cx="-20" cy="-5" rx="26" ry="32" fill="none" stroke="#d4a574" stroke-width="2"/>
    <ellipse cx="20" cy="-5" rx="26" ry="32" fill="none" stroke="#d4a574" stroke-width="2"/>
    <text x="50" y="-15" text-anchor="start" class="sublabel">600cc</text>
  </g>
  
  <!-- Footer -->
  <text x="500" y="750" text-anchor="middle" class="sublabel">Visual comparison of breast implant volumes showing size differences</text>
</svg>
