<svg xmlns="http://www.w3.org/2000/svg" viewBox="0 0 1200 900">
  <defs>
    <style>
      .title { font: bold 32px Arial; fill: #2c3e50; }
      .header { font: bold 16px Arial; fill: #2c3e50; }
      .label { font: 14px Arial; fill: #555; }
      .small-label { font: 12px Arial; fill: #666; }
      .cell-bg { fill: #fff; stroke: #dee2e6; stroke-width: 1; }
    </style>
    <radialGradient id="implant-grad" cx="50%" cy="40%">
      <stop offset="0%" style="stop-color:#f5e6d3;stop-opacity:1" />
      <stop offset="100%" style="stop-color:#d4a574;stop-opacity:1" />
    </radialGradient>
  </defs>
  
  <!-- Title -->
  <text x="600" y="40" text-anchor="middle" class="title">SILICONE SIZE CHART</text>
  
  <!-- Column Headers -->
  <rect x="50" y="80" width="180" height="50" class="cell-bg"/>
  <text x="140" y="110" text-anchor="middle" class="header">VOLUME IMPLANT</text>
  
  <rect x="230" y="80" width="180" height="50" class="cell-bg"/>
  <text x="320" y="110" text-anchor="middle" class="header">MODERATE</text>
  
  <rect x="410" y="80" width="180" height="50" class="cell-bg"/>
  <text x="500" y="110" text-anchor="middle" class="header">MODERATE PLUS</text>
  
  <rect x="590" y="80" width="180" height="50" class="cell-bg"/>
  <text x="680" y="110" text-anchor="middle" class="header">HIGH</text>
  
  <rect x="770" y="80" width="180" height="50" class="cell-bg"/>
  <text x="860" y="110" text-anchor="middle" class="header">ULTRA HIGH</text>
  
  <!-- Row: 150cc -->
  <rect x="50" y="130" width="180" height="100" class="cell-bg"/>
  <text x="140" y="185" text-anchor="middle" class="header">150cc</text>
  
  <rect x="230" y="130" width="180" height="100" class="cell-bg"/>
  <ellipse cx="320" cy="180" rx="35" ry="25" fill="url(#implant-grad)" stroke="#d4a574" stroke-width="2"/>
  <text x="320" y="215" text-anchor="middle" class="small-label">3.0 mm</text>
  
  <rect x="410" y="130" width="180" height="100" class="cell-bg"/>
  <ellipse cx="500" cy="180" rx="35" ry="28" fill="url(#implant-grad)" stroke="#d4a574" stroke-width="2"/>
  <text x="500" y="215" text-anchor="middle" class="small-label">3.5 mm</text>
  
  <rect x="590" y="130" width="180" height="100" class="cell-bg"/>
  <ellipse cx="680" cy="180" rx="35" ry="32" fill="url(#implant-grad)" stroke="#d4a574" stroke-width="2"/>
  <text x="680" y="215" text-anchor="middle" class="small-label">8.5 mm</text>
  
  <rect x="770" y="130" width="180" height="100" class="cell-bg"/>
  <ellipse cx="860" cy="180" rx="35" ry="36" fill="url(#implant-grad)" stroke="#d4a574" stroke-width="2"/>
  <text x="860" y="215" text-anchor="middle" class="small-label">6.6 mm</text>
  
  <!-- Row: 180cc -->
  <rect x="50" y="230" width="180" height="100" class="cell-bg"/>
  <text x="140" y="285" text-anchor="middle" class="header">180cc</text>
  
  <rect x="230" y="230" width="180" height="100" class="cell-bg"/>
  <ellipse cx="320" cy="280" rx="36" ry="26" fill="url(#implant-grad)" stroke="#d4a574" stroke-width="2"/>
  <text x="320" y="315" text-anchor="middle" class="small-label">3.0 mm</text>
  
  <rect x="410" y="230" width="180" height="100" class="cell-bg"/>
  <ellipse cx="500" cy="280" rx="36" ry="29" fill="url(#implant-grad)" stroke="#d4a574" stroke-width="2"/>
  <text x="500" y="315" text-anchor="middle" class="small-label">3.5 mm</text>
  
  <rect x="590" y="230" width="180" height="100" class="cell-bg"/>
  <ellipse cx="680" cy="280" rx="36" ry="33" fill="url(#implant-grad)" stroke="#d4a574" stroke-width="2"/>
  <text x="680" y="315" text-anchor="middle" class="small-label">12.5 mm</text>
  
  <rect x="770" y="230" width="180" height="100" class="cell-bg"/>
  <ellipse cx="860" cy="280" rx="36" ry="37" fill="url(#implant-grad)" stroke="#d4a574" stroke-width="2"/>
  <text x="860" y="315" text-anchor="middle" class="small-label">7.5 mm</text>
  
  <!-- Row: 250cc -->
  <rect x="50" y="330" width="180" height="100" class="cell-bg"/>
  <text x="140" y="385" text-anchor="middle" class="header">250cc</text>
  
  <rect x="230" y="330" width="180" height="100" class="cell-bg"/>
  <ellipse cx="320" cy="380" rx="42" ry="30" fill="url(#implant-grad)" stroke="#d4a574" stroke-width="2"/>
  <text x="320" y="415" text-anchor="middle" class="small-label">3.0 mm</text>
  
  <rect x="410" y="330" width="180" height="100" class="cell-bg"/>
  <ellipse cx="500" cy="380" rx="42" ry="34" fill="url(#implant-grad)" stroke="#d4a574" stroke-width="2"/>
  <text x="500" y="415" text-anchor="middle" class="small-label">3.5 mm</text>
  
  <rect x="590" y="330" width="180" height="100" class="cell-bg"/>
  <ellipse cx="680" cy="380" rx="42" ry="38" fill="url(#implant-grad)" stroke="#d4a574" stroke-width="2"/>
  <text x="680" y="415" text-anchor="middle" class="small-label">12.5 mm</text>
  
  <rect x="770" y="330" width="180" height="100" class="cell-bg"/>
  <ellipse cx="860" cy="380" rx="42" ry="42" fill="url(#implant-grad)" stroke="#d4a574" stroke-width="2"/>
  <text x="860" y="415" text-anchor="middle" class="small-label">12.2 mm</text>
  
  <!-- Row: 300cc -->
  <rect x="50" y="430" width="180" height="100" class="cell-bg"/>
  <text x="140" y="485" text-anchor="middle" class="header">300cc</text>
  
  <rect x="230" y="430" width="180" height="100" class="cell-bg"/>
  <ellipse cx="320" cy="480" rx="45" ry="32" fill="url(#implant-grad)" stroke="#d4a574" stroke-width="2"/>
  <text x="320" y="515" text-anchor="middle" class="small-label">3.0 mm</text>
  
  <rect x="410" y="430" width="180" height="100" class="cell-bg"/>
  <ellipse cx="500" cy="480" rx="45" ry="36" fill="url(#implant-grad)" stroke="#d4a574" stroke-width="2"/>
  <text x="500" y="515" text-anchor="middle" class="small-label">21.0 mm</text>
  
  <rect x="590" y="430" width="180" height="100" class="cell-bg"/>
  <ellipse cx="680" cy="480" rx="45" ry="40" fill="url(#implant-grad)" stroke="#d4a574" stroke-width="2"/>
  <text x="680" y="515" text-anchor="middle" class="small-label">11.8 mm</text>
  
  <rect x="770" y="430" width="180" height="100" class="cell-bg"/>
  <ellipse cx="860" cy="480" rx="45" ry="44" fill="url(#implant-grad)" stroke="#d4a574" stroke-width="2"/>
  <text x="860" y="515" text-anchor="middle" class="small-label">2.9 mm</text>
  
  <!-- Row: 400cc -->
  <rect x="50" y="530" width="180" height="100" class="cell-bg"/>
  <text x="140" y="585" text-anchor="middle" class="header">400cc</text>
  
  <rect x="230" y="530" width="180" height="100" class="cell-bg"/>
  <ellipse cx="320" cy="580" rx="48" ry="34" fill="url(#implant-grad)" stroke="#d4a574" stroke-width="2"/>
  <text x="320" y="615" text-anchor="middle" class="small-label">5.0 mm</text>
  
  <rect x="410" y="530" width="180" height="100" class="cell-bg"/>
  <ellipse cx="500" cy="580" rx="48" ry="38" fill="url(#implant-grad)" stroke="#d4a574" stroke-width="2"/>
  <text x="500" y="615" text-anchor="middle" class="small-label">21.0 mm</text>
  
  <rect x="590" y="530" width="180" height="100" class="cell-bg"/>
  <ellipse cx="680" cy="580" rx="48" ry="43" fill="url(#implant-grad)" stroke="#d4a574" stroke-width="2"/>
  <text x="680" y="615" text-anchor="middle" class="small-label">11.8 mm</text>
  
  <rect x="770" y="530" width="180" height="100" class="cell-bg"/>
  <ellipse cx="860" cy="580" rx="48" ry="48" fill="url(#implant-grad)" stroke="#d4a574" stroke-width="2"/>
  <text x="860" y="615" text-anchor="middle" class="small-label">2.9 mm</text>
  
  <!-- Row: 700cc -->
  <rect x="50" y="630" width="180" height="100" class="cell-bg"/>
  <text x="140" y="685" text-anchor="middle" class="header">700cc</text>
  
  <rect x="230" y="630" width="180" height="100" class="cell-bg"/>
  <ellipse cx="320" cy="680" rx="52" ry="36" fill="url(#implant-grad)" stroke="#d4a574" stroke-width="2"/>
  <text x="320" y="715" text-anchor="middle" class="small-label">2.5 mm</text>
  
  <rect x="410" y="630" width="180" height="100" class="cell-bg"/>
  <ellipse cx="500" cy="680" rx="52" ry="40" fill="url(#implant-grad)" stroke="#d4a574" stroke-width="2"/>
  <text x="500" y="715" text-anchor="middle" class="small-label">2.0 mm</text>
  
  <rect x="590" y="630" width="180" height="100" class="cell-bg"/>
  <ellipse cx="680" cy="680" rx="52" ry="45" fill="url(#implant-grad)" stroke="#d4a574" stroke-width="2"/>
  <text x="680" y="715" text-anchor="middle" class="small-label">21.5 mm</text>
  
  <rect x="770" y="630" width="180" height="100" class="cell-bg"/>
  <ellipse cx="860" cy="680" rx="52" ry="50" fill="url(#implant-grad)" stroke="#d4a574" stroke-width="2"/>
  <text x="860" y="715" text-anchor="middle" class="small-label">23.4 mm</text>
  
  <!-- Row: 800cc -->
  <rect x="50" y="730" width="180" height="100" class="cell-bg"/>
  <text x="140" y="785" text-anchor="middle" class="header">800cc</text>
  
  <rect x="230" y="730" width="180" height="100" class="cell-bg"/>
  <ellipse cx="320" cy="780" rx="54" ry="38" fill="url(#implant-grad)" stroke="#d4a574" stroke-width="2"/>
  <text x="320" y="815" text-anchor="middle" class="small-label">2.5 mm</text>
  
  <rect x="410" y="730" width="180" height="100" class="cell-bg"/>
  <ellipse cx="500" cy="780" rx="54" ry="42" fill="url(#implant-grad)" stroke="#d4a574" stroke-width="2"/>
  <text x="500" y="815" text-anchor="middle" class="small-label">2.0 mm</text>
  
  <rect x="590" y="730" width="180" height="100" class="cell-bg"/>
  <ellipse cx="680" cy="780" rx="54" ry="47" fill="url(#implant-grad)" stroke="#d4a574" stroke-width="2"/>
  <text x="680" y="815" text-anchor="middle" class="small-label">21.2 mm</text>
  
  <rect x="770" y="730" width="180" height="100" class="cell-bg"/>
  <ellipse cx="860" cy="780" rx="54" ry="52" fill="url(#implant-grad)" stroke="#d4a574" stroke-width="2"/>
  <text x="860" y="815" text-anchor="middle" class="small-label">22.5 mm</text>
  
  <!-- Footer Note -->
  <text x="600" y="870" text-anchor="middle" class="small-label">Silicone implant volumes from 150cc to 800cc across different projection profiles</text>
</svg>
