<svg version="1.1" id="Layer_1" xmlns="http://www.w3.org/2000/svg" xmlns:xlink="http://www.w3.org/1999/xlink" x="0px" y="0px"
	 width="100%" viewBox="0 0 713 720" enable-background="new 0 0 713 720" xml:space="preserve">
<path fill="#3586EC" opacity="1.000000" stroke="none" 
	d="
M316.000000,1.000000 
	C329.354218,1.000000 342.708466,1.000000 356.504364,1.355748 
	C357.063873,2.165918 357.181702,2.620340 357.281219,3.539379 
	C357.314362,26.296230 357.365845,48.588467 357.263458,71.306946 
	C357.217346,73.523804 357.325134,75.314407 357.401428,77.564926 
	C357.395660,83.643982 357.421326,89.263130 357.301331,95.243431 
	C357.248535,96.106071 357.341461,96.607552 357.397308,97.569153 
	C357.304596,118.957787 357.248932,139.886307 356.721375,160.914154 
	C348.761322,161.039810 341.273132,161.093170 333.785034,161.088058 
	C288.189026,161.056961 242.593018,161.012558 197.343185,160.746246 
	C199.830688,160.346924 201.971939,160.024261 204.113373,160.022949 
	C252.766678,159.993256 301.420135,159.947205 350.073059,160.082443 
	C354.614624,160.095062 356.097809,158.800797 356.083954,154.150192 
	C355.938263,105.330704 356.001801,56.510605 355.988190,7.690674 
	C355.986542,1.732954 354.607086,0.870529 348.904388,3.087472 
	C353.676514,7.451344 353.837006,13.426887 353.904266,19.108774 
	C354.083923,34.280491 353.438385,49.409660 352.356995,64.582756 
	C351.390656,78.142349 353.426666,91.906250 353.916718,105.587929 
	C354.008087,108.139290 352.976196,110.717422 352.608917,113.303963 
	C352.404938,114.740570 352.353027,116.234772 352.493591,117.677582 
	C352.924377,122.098953 353.719940,126.496834 353.927490,130.924774 
	C354.174011,136.183990 354.190338,141.479416 353.863861,146.731659 
	C353.622101,150.620667 352.451691,154.946289 348.051422,155.598022 
	C340.048004,156.783447 331.918854,157.403870 323.825165,157.618988 
	C315.058746,157.852005 306.272766,157.201736 297.495575,157.211044 
	C286.585205,157.222626 275.675415,157.627502 264.764801,157.657562 
	C251.876678,157.693069 238.986923,157.371475 226.099808,157.466522 
	C216.454346,157.537659 206.801819,157.855865 197.174942,158.436920 
	C194.619339,158.591171 191.114319,158.269623 189.987503,162.393677 
	C169.675293,169.135727 158.702759,183.726685 158.602768,204.671860 
	C158.433426,240.148102 158.530502,275.625549 158.458923,311.102356 
	C158.428696,326.084686 158.254623,341.066742 157.794495,355.908813 
	C155.313431,355.843903 153.184387,355.958160 151.054138,355.988434 
	C126.931404,356.331421 102.809204,356.820770 78.685326,356.928131 
	C66.586090,356.981995 54.485428,356.224365 42.382263,356.036652 
	C31.916048,355.874329 21.444622,356.065613 10.977261,355.946075 
	C8.574825,355.918610 6.179620,355.258057 3.442082,354.836700 
	C3.256950,355.997498 3.064926,357.201538 2.923646,358.087402 
	C4.880056,359.006866 6.446454,359.743042 7.602455,360.528625 
	C5.817831,360.668640 4.443605,360.759247 2.830114,360.701752 
	C2.060565,360.369110 1.530282,360.184540 1.000000,360.000000 
	C1.000000,346.979095 1.000000,333.958221 1.292960,320.316376 
	C1.390613,319.130280 1.195306,318.565155 0.999999,318.000000 
	C1.000000,316.285645 1.000000,314.571289 1.396358,312.620911 
	C2.189490,310.378510 2.538030,308.361206 2.990589,306.367493 
	C6.959910,288.880920 10.947786,271.398529 15.270525,253.828339 
	C16.395668,252.345657 17.380331,251.024017 17.932674,249.541321 
	C21.416538,240.189331 24.652296,230.742401 28.270706,221.443817 
	C31.340166,213.555923 34.815041,205.825790 38.385918,197.837296 
	C40.451458,193.685593 42.241608,189.722458 44.018135,185.611206 
	C44.004517,185.463104 44.116798,185.187653 44.302299,184.994080 
	C44.656048,184.487305 44.824295,184.174103 44.982735,183.924011 
	C44.972927,183.987122 44.846912,183.966110 45.193489,183.890564 
	C46.674145,181.507065 47.808228,179.199097 48.945648,176.927979 
	C48.948982,176.964828 48.875080,176.968201 49.225189,176.900726 
	C50.368401,175.188705 51.161503,173.544174 51.972107,171.937347 
	C51.989609,171.975037 51.913834,172.009140 52.136761,171.862503 
	C52.575954,171.435196 52.792217,171.154526 53.012985,170.940979 
	C53.017483,171.008102 52.883301,171.018082 52.989002,170.920685 
	C53.307804,170.597870 53.329674,170.345215 53.179970,169.714981 
	C53.832516,168.397125 54.451450,167.420166 55.100433,166.463593 
	C62.212872,155.980194 69.081894,145.318832 76.547714,135.093262 
	C80.437637,129.765427 85.488602,125.299759 89.830124,120.284508 
	C103.689041,104.274925 119.156830,89.897766 135.386810,76.404305 
	C143.814621,69.397491 153.255615,63.596348 162.339203,57.397533 
	C166.092972,54.835888 170.097809,52.639572 174.009445,50.312420 
	C181.350723,45.944901 188.693573,41.579647 196.068649,37.269695 
	C197.605988,36.371273 199.252670,35.634804 200.906036,34.964470 
	C207.574097,32.261028 214.283310,29.658627 220.941269,26.930872 
	C227.361618,24.300457 233.620255,21.220781 240.166626,18.968161 
	C246.470154,16.799093 253.354752,16.153790 259.449341,13.575204 
	C274.031555,7.405561 289.533630,5.716919 304.837585,2.927733 
	C305.648560,2.779927 306.283264,1.664808 307.000000,1.000003 
	C309.041656,1.000000 311.083344,1.000000 313.445770,1.333707 
	C314.511017,1.444943 315.255524,1.222472 316.000000,1.000000 
M335.529236,2.504205 
	C335.529236,2.504205 335.487183,2.519955 335.529236,2.504205 
z"/>
<path fill="#42A442" opacity="1.000000" stroke="none" 
	d="
M1.000000,360.468658 
	C1.530282,360.184540 2.060565,360.369110 2.660252,361.095581 
	C2.488703,363.593201 1.932256,365.569275 2.056881,367.501404 
	C3.024080,382.496307 3.669480,397.533722 5.346805,412.453125 
	C6.389937,421.731567 9.056690,430.827454 11.023344,440.405518 
	C11.953818,444.849335 12.855684,448.892883 13.757550,452.936432 
	C14.258288,452.803497 14.759027,452.670563 15.259766,452.537628 
	C17.192476,447.408234 13.804005,443.785339 11.004711,439.530457 
	C10.160022,431.527130 9.291865,423.991486 8.477349,416.450012 
	C7.382750,406.315308 5.661840,396.189117 5.464499,386.034882 
	C5.299047,377.521484 0.131380,367.686127 10.427133,360.762848 
	C12.215797,360.722748 13.599537,360.786438 15.023596,361.236389 
	C17.816500,365.116150 19.302202,364.922180 21.380310,360.745483 
	C22.487410,360.711945 23.231171,360.778229 24.063469,361.155090 
	C25.109360,361.259491 26.066713,361.053375 27.387766,360.748535 
	C28.495731,360.715393 29.239998,360.780945 30.019985,361.235504 
	C32.544079,362.747528 35.033665,364.840454 37.520641,364.837341 
	C54.609100,364.816010 71.695992,364.271179 88.785439,364.065094 
	C101.725784,363.909027 114.669159,364.007019 127.611183,363.985046 
	C128.775375,363.983063 129.945358,363.842529 131.102402,363.919800 
	C133.643173,364.089478 136.180466,364.327972 138.713562,364.592102 
	C142.809540,365.019135 146.910919,365.530487 150.376953,361.775330 
	C151.488449,361.740875 152.233948,361.793152 153.033936,362.199432 
	C153.391510,363.701874 153.694626,364.850342 153.997482,366.467529 
	C153.998779,390.370239 154.001038,413.804260 154.001633,437.238251 
	C154.002182,458.232452 153.377594,479.251923 154.227859,500.211609 
	C154.761261,513.359802 153.271179,527.358459 162.630646,538.768372 
	C165.297150,542.019104 167.532883,545.687866 170.528580,548.583008 
	C172.881134,550.856689 176.099899,552.234192 179.156372,554.032837 
	C179.378845,554.055908 179.821579,554.109314 179.927002,554.431885 
	C181.669052,556.193848 183.305679,557.633240 185.022308,559.403320 
	C186.586456,561.502197 187.947327,563.393616 189.572601,565.020874 
	C238.973938,614.482727 288.404663,663.915283 337.807739,713.375427 
	C339.206879,714.776245 340.355316,716.427368 341.620697,717.961792 
	C341.367126,718.501282 341.113556,719.040833 340.859985,719.580322 
	C325.035156,717.792297 309.210327,716.004211 293.266327,714.202698 
	C293.581818,715.369141 293.793854,716.153198 293.653259,717.007080 
	C292.205963,716.673645 291.111328,716.270264 290.041687,715.591797 
	C289.744324,714.544983 289.421936,713.773376 289.099579,713.001831 
	C288.817444,713.132324 288.535309,713.262817 288.253174,713.393311 
	C288.507111,714.242737 288.761078,715.092163 288.623779,716.001831 
	C286.395599,715.383484 284.599121,714.553284 282.715302,714.050476 
	C269.306885,710.471558 255.578430,707.812195 242.542526,703.193115 
	C228.707047,698.290771 215.472031,691.661682 202.074646,685.567261 
	C194.139236,681.957520 185.899216,678.679077 178.672729,673.920532 
	C164.188065,664.382629 150.304977,653.931152 136.096252,643.527710 
	C134.673569,642.124146 133.328171,641.049561 132.005035,639.973816 
	C132.027283,639.972656 132.025925,640.017151 131.897614,639.708740 
	C129.484909,637.600586 127.200516,635.800842 124.958023,634.000732 
	C124.999908,634.000488 125.000145,634.084290 124.930984,633.746277 
	C121.210960,630.275391 117.560097,627.142578 113.951172,624.007935 
	C113.993103,624.006165 113.996208,624.090088 113.925316,623.773926 
	C113.205635,622.974243 112.556847,622.490662 111.950241,622.005249 
	C111.992424,622.003479 111.995667,622.087830 111.917305,621.759949 
	C111.135094,620.948853 110.431244,620.465637 109.442261,619.873535 
	C107.775513,618.304810 106.393883,616.844910 104.806946,615.117310 
	C104.257721,614.561584 103.913803,614.273438 103.344193,613.907227 
	C102.752655,613.326904 102.386826,612.824646 101.971420,611.957886 
	C98.220398,607.738892 94.518936,603.884399 90.534531,599.858765 
	C83.589302,591.797546 76.759834,584.040344 70.334557,575.961670 
	C67.072678,571.860413 64.979500,566.802551 61.583904,562.840515 
	C54.743977,554.859741 49.686535,545.966125 45.939415,535.840698 
	C44.868389,533.200684 43.847145,530.931152 42.813419,528.667236 
	C37.845688,517.787720 32.874584,506.909698 28.237564,495.912903 
	C28.933605,494.811462 29.839893,493.640503 29.575111,492.874237 
	C27.171446,485.917969 24.545614,479.038818 22.024107,472.122772 
	C21.072498,469.512634 20.202545,466.872009 19.333908,464.232605 
	C18.399303,461.392761 17.509933,458.538025 16.600824,455.689758 
	C16.176868,455.822510 15.752912,455.955292 15.328956,456.088043 
	C15.855527,459.121490 16.382097,462.154968 16.512344,465.163086 
	C15.586852,465.088684 15.057681,465.039612 14.279732,464.724976 
	C12.562492,457.775757 10.954196,451.119080 9.656283,444.402496 
	C7.346081,432.447327 5.256999,420.449524 2.957427,408.492249 
	C2.780084,407.570099 1.674267,406.826569 1.000002,406.000000 
	C1.000000,390.979095 1.000000,375.958221 1.000000,360.468658 
z"/>
<path fill="#000000" opacity="1.000000" stroke="none" 
	d="
M714.000000,406.000000 
	C714.000000,510.927094 714.000000,615.854187 714.000000,721.000000 
	C609.978699,721.000000 505.957184,721.000000 401.207947,720.625488 
	C403.889893,719.502930 407.288788,718.700562 410.711426,718.017212 
	C420.191742,716.124329 429.795868,714.722534 439.140839,712.311768 
	C452.189819,708.945496 465.159973,705.175537 477.942291,700.913757 
	C484.590027,698.697388 490.762085,695.054321 497.521973,692.036133 
	C503.246674,689.573792 508.627502,687.192261 513.940674,684.668213 
	C517.917480,682.779053 521.917480,680.894775 525.710815,678.673218 
	C532.074219,674.946411 538.281250,670.952576 544.966797,667.084961 
	C549.986145,665.051208 555.085815,663.654480 557.480957,658.192505 
	C561.207581,656.284180 564.852966,654.755310 567.870056,652.416016 
	C573.252136,648.243225 578.307068,643.639893 583.402222,639.107971 
	C589.423950,633.751953 595.343323,628.280945 601.537354,622.756226 
	C602.187134,622.125122 602.606750,621.597656 603.310669,620.976074 
	C604.080017,620.268799 604.565186,619.655640 605.399963,618.983032 
	C613.264709,614.621704 618.757202,608.407715 623.010864,600.568359 
	C628.779968,593.971069 634.633972,587.869202 639.882751,581.284912 
	C644.668396,575.281677 649.011292,568.892395 653.165527,562.426697 
	C659.161255,553.094788 665.341492,543.818542 670.480042,534.013916 
	C677.782227,520.080933 684.539917,505.834290 690.860474,491.427856 
	C693.688110,484.982758 694.888733,477.823883 696.905884,470.762177 
	C696.984070,470.535431 697.084595,470.066345 697.416504,469.876831 
	C698.445496,466.455231 699.142517,463.223175 699.915222,459.762695 
	C699.990906,459.534332 700.085266,459.062531 700.378540,458.926941 
	C700.761536,458.178619 700.851135,457.565887 701.026062,456.784607 
	C701.111389,456.615997 701.107361,456.238068 701.510193,456.188660 
	C702.599792,453.149658 703.286560,450.160065 704.322021,446.968170 
	C707.115479,433.642731 709.539368,420.515533 712.076233,407.410187 
	C712.187073,406.837463 713.335083,406.465485 714.000000,406.000000 
z"/>
<path fill="#000000" opacity="1.000000" stroke="none" 
	d="
M395.000000,1.000004 
	C501.261444,1.000000 607.522888,1.000000 714.000000,1.000000 
	C714.000000,109.354675 714.000000,217.709488 713.753662,326.447693 
	C713.302856,326.554718 713.098328,326.278381 712.904114,325.708984 
	C712.573364,324.943970 712.232300,324.472046 711.946899,323.557098 
	C711.942505,320.722656 711.882385,318.331207 711.897949,315.505249 
	C711.291931,310.907318 710.610168,306.743927 709.970520,302.477844 
	C710.012634,302.375183 709.879211,302.197784 709.955566,301.770447 
	C709.656433,299.773926 709.281006,298.204681 708.958130,296.230347 
	C708.350159,291.494843 708.029724,287.078613 706.963074,282.850647 
	C704.190125,271.858917 701.189209,260.921326 698.074036,250.020767 
	C696.674927,245.125107 694.976013,240.293121 693.077393,235.567139 
	C689.815857,227.448700 686.291077,219.436066 682.938843,210.971832 
	C679.729309,203.615524 676.531616,196.629715 673.113220,189.753632 
	C672.549255,188.619324 671.018188,187.965805 669.652344,186.882721 
	C668.536926,185.039902 667.703186,183.404465 666.995544,181.415405 
	C665.092590,177.086502 663.279846,172.979126 660.960327,169.181229 
	C659.347839,166.540894 657.039062,164.325867 655.030518,161.952332 
	C655.019714,161.983826 655.085632,161.974304 655.065735,161.597794 
	C651.066406,155.727737 647.086975,150.234207 642.915039,144.465149 
	C636.835144,137.085907 630.947815,129.982208 625.054077,122.527977 
	C621.981628,118.792328 618.915466,115.407211 615.904907,111.673248 
	C612.614258,108.298256 609.268066,105.272125 605.631714,102.049736 
	C600.794739,97.733116 596.247803,93.612762 591.710693,89.372253 
	C591.720520,89.252106 591.498474,89.158272 591.372253,88.876984 
	C589.092163,86.887413 586.938293,85.179123 584.779785,83.324577 
	C584.775146,83.178314 584.525452,83.025673 584.425720,82.738495 
	C581.239990,79.590401 578.400879,76.388885 575.018250,73.937210 
	C567.210083,68.277916 559.289612,62.741199 551.124084,57.618023 
	C544.950134,53.744442 538.326599,50.587543 531.742859,47.041183 
	C531.582581,46.970688 531.232300,46.969719 531.103638,46.637367 
	C529.232483,45.343346 527.490051,44.381676 525.716736,43.310665 
	C525.685852,43.201324 525.463135,43.156219 525.292419,42.917530 
	C524.430176,42.370049 523.738708,42.061253 522.871216,41.452446 
	C515.398987,37.720016 508.183533,34.100739 500.785919,30.902838 
	C491.703186,26.976480 482.548218,23.186415 473.272339,19.747856 
	C466.548096,17.255198 459.632874,15.219819 452.701538,13.357545 
	C442.883057,10.719576 433.052643,7.996374 423.074829,6.120549 
	C414.433228,4.495924 405.574280,4.040097 396.828949,2.929707 
	C396.148590,2.843323 395.606384,1.668793 395.000000,1.000004 
z"/>
<path fill="#000000" opacity="1.000000" stroke="none" 
	d="
M136.173584,643.856750 
	C150.304977,653.931152 164.188065,664.382629 178.672729,673.920532 
	C185.899216,678.679077 194.139236,681.957520 202.074646,685.567261 
	C215.472031,691.661682 228.707047,698.290771 242.542526,703.193115 
	C255.578430,707.812195 269.306885,710.471558 282.715302,714.050476 
	C284.599121,714.553284 286.395599,715.383484 288.876495,716.016113 
	C289.685913,715.935730 289.851318,715.901306 290.016724,715.866943 
	C291.111328,716.270264 292.205963,716.673645 294.019897,717.047485 
	C295.723236,717.056274 296.707275,717.094482 297.948364,717.440796 
	C299.795502,717.783752 301.385620,717.818542 303.286743,717.952576 
	C304.404388,718.334045 305.210968,718.616272 306.384094,718.965088 
	C307.487549,718.957703 308.224426,718.883606 309.266876,718.875854 
	C309.985046,718.999817 310.397705,719.057495 310.958557,719.450073 
	C311.186737,719.928040 311.354767,720.089966 311.328857,720.210144 
	C311.269714,720.484314 311.115570,720.737976 311.000000,721.000000 
	C207.739014,721.000000 104.478035,721.000000 1.000000,721.000000 
	C1.000000,616.312561 1.000000,511.624939 1.000002,406.468658 
	C1.674267,406.826569 2.780084,407.570099 2.957427,408.492249 
	C5.256999,420.449524 7.346081,432.447327 9.656283,444.402496 
	C10.954196,451.119080 12.562492,457.775757 14.464348,465.093872 
	C21.737484,489.698547 31.642447,512.393127 43.513119,534.259277 
	C43.973743,535.107788 45.143913,535.570984 45.983452,536.213745 
	C49.686535,545.966125 54.743977,554.859741 61.583904,562.840515 
	C64.979500,566.802551 67.072678,571.860413 70.334557,575.961670 
	C76.759834,584.040344 83.589302,591.797546 90.548477,600.222351 
	C94.570572,604.612183 98.295784,608.467285 102.020996,612.322449 
	C102.386826,612.824646 102.752655,613.326904 103.547928,614.177246 
	C104.322334,614.811951 104.667297,615.098450 105.012253,615.385010 
	C106.393883,616.844910 107.775513,618.304810 109.614311,620.139771 
	C110.712883,621.039124 111.354286,621.563477 111.995674,622.087830 
	C111.995667,622.087830 111.992424,622.003479 112.018951,622.340454 
	C112.695724,623.148376 113.345970,623.619202 113.996216,624.090088 
	C113.996208,624.090088 113.993103,624.006165 114.013336,624.355225 
	C117.689095,627.830933 121.344612,630.957642 125.000137,634.084290 
	C125.000145,634.084290 124.999908,634.000488 125.031250,634.346069 
	C127.383705,636.466797 129.704819,638.242004 132.025925,640.017151 
	C132.025925,640.017151 132.027283,639.972656 132.071136,640.317993 
	C133.467850,641.727783 134.820709,642.792297 136.173584,643.856750 
z"/>
<path fill="#000000" opacity="1.000000" stroke="none" 
	d="
M44.116798,185.187653 
	C44.116798,185.187653 44.004517,185.463104 43.686501,185.758606 
	C41.207176,190.022781 39.045872,193.991440 36.568596,198.119995 
	C29.145132,216.824905 22.037649,235.369904 14.930164,253.914917 
	C10.947786,271.398529 6.959910,288.880920 2.990589,306.367493 
	C2.538030,308.361206 2.189490,310.378510 1.396358,312.192444 
	C1.000000,208.406860 1.000000,104.813713 1.000000,1.000000 
	C102.687454,1.000000 204.375076,1.000000 306.531342,1.000003 
	C306.283264,1.664808 305.648560,2.779927 304.837585,2.927733 
	C289.533630,5.716919 274.031555,7.405561 259.449341,13.575204 
	C253.354752,16.153790 246.470154,16.799093 240.166626,18.968161 
	C233.620255,21.220781 227.361618,24.300457 220.941269,26.930872 
	C214.283310,29.658627 207.574097,32.261028 200.906036,34.964470 
	C199.252670,35.634804 197.605988,36.371273 196.068649,37.269695 
	C188.693573,41.579647 181.350723,45.944901 174.009445,50.312420 
	C170.097809,52.639572 166.092972,54.835888 162.339203,57.397533 
	C153.255615,63.596348 143.814621,69.397491 135.386810,76.404305 
	C119.156830,89.897766 103.689041,104.274925 89.830124,120.284508 
	C85.488602,125.299759 80.437637,129.765427 76.547714,135.093262 
	C69.081894,145.318832 62.212872,155.980194 55.100433,166.463593 
	C54.451450,167.420166 53.832516,168.397125 53.085472,169.945648 
	C52.971317,170.526672 52.883301,171.018082 52.883301,171.018082 
	C52.883301,171.018082 53.017483,171.008102 52.734940,171.017578 
	C52.272873,171.354416 52.093353,171.681778 51.913834,172.009140 
	C51.913834,172.009140 51.989609,171.975037 51.637154,172.046082 
	C50.481491,173.734161 49.678288,175.351181 48.875084,176.968201 
	C48.875080,176.968201 48.948982,176.964828 48.606964,177.034882 
	C47.125603,179.391983 45.986256,181.679047 44.846909,183.966110 
	C44.846912,183.966110 44.972927,183.987122 44.685699,184.036957 
	C44.304585,184.453751 44.210693,184.820694 44.116798,185.187653 
z"/>
<path fill="#348B3F" opacity="1.000000" stroke="none" 
	d="
M306.017578,718.898499 
	C305.210968,718.616272 304.404388,718.334045 303.162170,717.639954 
	C301.048126,717.196289 299.369690,717.164490 297.691284,717.132629 
	C296.707275,717.094482 295.723236,717.056274 294.372559,716.977661 
	C293.793854,716.153198 293.581818,715.369141 293.266327,714.202698 
	C309.210327,716.004211 325.035156,717.792297 340.859985,719.580322 
	C341.113556,719.040833 341.367126,718.501282 341.620697,717.961792 
	C340.355316,716.427368 339.206879,714.776245 337.807739,713.375427 
	C288.404663,663.915283 238.973938,614.482727 189.572601,565.020874 
	C187.947327,563.393616 186.586456,561.502197 185.279755,559.214233 
	C193.089615,560.400940 200.663788,563.130249 208.368439,563.569214 
	C219.366562,564.195801 230.458664,563.070984 241.513565,562.827393 
	C256.889435,562.488525 272.273621,561.879272 287.644165,562.097229 
	C310.655121,562.423523 333.657318,563.368408 356.764069,564.440796 
	C356.869019,616.571594 356.873108,668.311829 356.664001,720.134277 
	C356.222321,720.432678 356.072083,720.693848 356.000000,721.000000 
	C344.645782,721.000000 333.291534,721.000000 321.291138,720.795959 
	C320.096649,720.727966 319.548309,720.863953 319.000000,721.000000 
	C318.250000,721.000000 317.500000,721.000000 316.276306,720.651733 
	C314.950745,716.494873 312.722656,718.468384 310.810333,719.115173 
	C310.397705,719.057495 309.985046,718.999817 309.173645,718.594055 
	C307.855743,718.463501 306.936646,718.680969 306.017578,718.898499 
z"/>
<path fill="#F14023" opacity="1.000000" stroke="none" 
	d="
M711.891296,324.000122 
	C712.232300,324.472046 712.573364,324.943970 712.534241,325.756226 
	C711.514832,327.356598 710.335693,328.616028 710.334106,329.876892 
	C710.328735,334.234772 710.733643,338.593140 710.734680,342.970947 
	C710.487000,342.990570 709.990234,343.007629 709.832520,342.735962 
	C708.786377,341.299438 707.897888,340.134552 707.015991,338.545227 
	C709.862854,328.504822 706.608582,319.416260 704.525879,310.249146 
	C703.869995,307.362061 703.429321,304.016571 701.675232,301.876953 
	C698.414917,297.900116 699.603333,293.317139 699.823914,289.431213 
	C700.191467,282.957550 698.307678,277.609100 695.643127,272.082550 
	C694.047668,268.773315 692.536377,265.179047 692.148254,261.587433 
	C691.513245,255.710983 689.401184,250.542404 687.442749,245.055893 
	C684.161621,235.863800 682.195068,226.211365 677.087585,217.689926 
	C676.862244,217.313980 677.112671,216.682938 676.987427,216.211609 
	C676.485901,214.324600 676.164673,212.339767 675.340820,210.597214 
	C672.229980,204.016937 667.477417,197.803940 666.134094,190.908981 
	C664.718079,183.640671 659.061340,180.026505 656.010376,174.351242 
	C653.059753,168.862747 648.795227,164.094711 645.304688,158.878479 
	C641.838989,153.699402 639.543762,147.276489 635.020325,143.400269 
	C630.821106,139.801849 628.200867,135.463440 624.945312,131.388519 
	C622.900269,128.828766 620.704163,126.381416 618.466675,123.985573 
	C615.081726,120.361023 611.673218,116.752983 608.148010,113.266014 
	C599.211426,104.426308 590.513428,95.308846 581.113953,86.987045 
	C575.126709,81.686279 568.172607,77.430771 561.431641,73.045372 
	C557.205566,70.296097 552.523499,67.982796 548.334595,65.427063 
	C539.249207,59.883938 531.274719,52.517223 521.232788,48.326153 
	C519.657104,47.668545 518.512329,45.404175 517.016296,45.236179 
	C512.157532,44.690544 509.265442,41.896545 506.835083,37.706772 
	C504.707367,35.919392 502.966553,33.909805 500.770935,33.010490 
	C489.934235,28.571766 479.101410,24.066010 468.035614,20.256674 
	C447.472107,13.177808 426.192688,9.058626 404.703552,5.931784 
	C400.436859,5.310944 396.245117,4.175043 392.265808,3.054905 
	C392.675201,2.222103 392.837616,1.611052 393.000000,1.000000 
	C393.444458,1.000000 393.888885,1.000000 394.666687,1.000004 
	C395.606384,1.668793 396.148590,2.843323 396.828949,2.929707 
	C405.574280,4.040097 414.433228,4.495924 423.074829,6.120549 
	C433.052643,7.996374 442.883057,10.719576 452.701538,13.357545 
	C459.632874,15.219819 466.548096,17.255198 473.272339,19.747856 
	C482.548218,23.186415 491.703186,26.976480 500.785919,30.902838 
	C508.183533,34.100739 515.398987,37.720016 522.957703,41.788559 
	C523.967834,42.668526 524.715454,42.912373 525.463135,43.156219 
	C525.463135,43.156219 525.685852,43.201324 525.722168,43.653770 
	C527.583069,45.060719 529.407715,46.015217 531.232300,46.969719 
	C531.232300,46.969719 531.582581,46.970688 531.873413,47.351677 
	C532.998962,48.517574 533.751709,49.419537 534.680603,50.069920 
	C550.099487,60.865410 565.526184,71.650124 581.013428,82.346893 
	C581.911804,82.967400 583.342468,82.817207 584.525452,83.025673 
	C584.525452,83.025673 584.775146,83.178314 584.716431,83.669830 
	C586.937988,85.826988 589.218201,87.492630 591.498474,89.158272 
	C591.498474,89.158272 591.720520,89.252106 591.656372,89.718903 
	C596.403015,94.797546 601.213867,99.409386 606.210327,104.142044 
	C606.638489,104.437889 606.847290,104.646675 607.161133,105.115311 
	C607.583862,105.548088 607.867676,105.754761 608.364868,106.183029 
	C609.385681,107.312004 610.193115,108.219368 611.140747,109.302094 
	C611.488037,109.699913 611.729370,109.875275 612.001221,110.002686 
	C611.997559,110.001823 611.995850,109.995026 612.125610,110.197540 
	C612.459106,110.654137 612.704834,110.857452 612.996277,111.005157 
	C613.000000,111.000305 612.989868,111.007599 613.123901,111.207817 
	C613.467651,111.658501 613.719116,111.855629 614.005920,112.000458 
	C613.999451,112.001511 614.004517,111.987282 614.077148,112.318680 
	C617.786682,116.059555 621.423584,119.469040 625.060486,122.878510 
	C630.947815,129.982208 636.835144,137.085907 642.775024,144.735580 
	C646.913574,150.845810 650.999573,156.410049 655.085632,161.974304 
	C655.085632,161.974304 655.019714,161.983826 655.009644,162.327209 
	C658.956299,169.036743 662.912903,175.402878 666.869507,181.769012 
	C667.703186,183.404465 668.536926,185.039902 669.596802,187.178925 
	C670.882874,190.214523 671.890930,192.769730 673.013855,195.273438 
	C675.034485,199.778427 677.123901,204.252579 679.167480,209.127625 
	C681.117188,214.220276 683.070679,218.930527 685.053040,223.628525 
	C693.847473,244.470108 699.677917,266.203705 704.595886,288.220520 
	C705.483948,292.196228 706.745544,296.088470 707.897705,300.331726 
	C708.031067,301.062592 708.101379,301.480927 707.966492,302.168518 
	C708.197144,304.943298 708.632996,307.448853 709.051758,309.964600 
	C709.034729,309.974762 709.072083,309.987732 709.055664,310.386047 
	C709.385559,312.512115 709.731812,314.239899 710.060059,315.941223 
	C710.042114,315.914825 710.103821,315.898163 710.075806,316.333008 
	C710.662354,319.178619 711.276794,321.589386 711.891296,324.000122 
z"/>
<path fill="#EAAF56" opacity="1.000000" stroke="none" 
	d="
M356.468658,721.000000 
	C356.072083,720.693848 356.222321,720.432678 357.143494,720.139221 
	C372.101044,719.094421 386.423523,718.641785 400.618744,717.052246 
	C430.057037,713.755981 458.510254,706.332397 485.983612,695.169373 
	C489.539978,693.724304 493.419312,693.074097 497.149048,692.055725 
	C490.762085,695.054321 484.590027,698.697388 477.942291,700.913757 
	C465.159973,705.175537 452.189819,708.945496 439.140839,712.311768 
	C429.795868,714.722534 420.191742,716.124329 410.711426,718.017212 
	C407.288788,718.700562 403.889893,719.502930 400.740112,720.625488 
	C398.958344,721.000000 396.916656,721.000000 394.524384,720.642395 
	C393.115845,720.523193 392.057922,720.761597 391.000000,721.000000 
	C379.645782,721.000000 368.291534,721.000000 356.468658,721.000000 
z"/>
<path fill="#ECBC6C" opacity="1.000000" stroke="none" 
	d="
M714.000000,405.562500 
	C713.335083,406.465485 712.187073,406.837463 712.076233,407.410187 
	C709.539368,420.515533 707.115479,433.642731 704.061768,446.920959 
	C703.276733,447.062805 703.100586,447.049500 702.956665,446.642700 
	C703.372131,443.951477 703.755371,441.653778 704.326233,439.052765 
	C704.674683,437.833160 704.835449,436.916870 705.063477,435.741760 
	C705.120850,435.128876 705.110840,434.774872 705.282593,434.228394 
	C705.584778,433.711182 705.705078,433.386383 705.908203,432.697968 
	C706.024170,431.345184 706.057373,430.356079 706.265625,429.182312 
	C706.559082,428.686615 706.677368,428.375549 706.878784,427.674774 
	C707.014771,425.963776 707.067627,424.642487 707.298035,423.072052 
	C707.592834,422.237976 707.710144,421.653076 707.924438,420.733521 
	C708.055603,419.707306 708.089844,419.015656 708.294189,418.080933 
	C708.544556,417.270386 708.624878,416.702942 708.797424,415.741119 
	C708.969788,414.004791 709.049927,412.662781 709.305969,411.076965 
	C709.577087,410.256958 709.672302,409.680847 709.853516,408.709503 
	C709.997620,406.971283 710.055664,405.628235 710.292236,404.001587 
	C710.557251,402.856354 710.643738,401.994751 710.808838,400.732025 
	C710.980469,398.989746 711.073547,397.648621 711.522095,396.280884 
	C712.585022,396.169495 713.292480,396.084747 714.000000,396.000000 
	C714.000000,396.444458 714.000000,396.888885 713.686951,397.746277 
	C713.582581,398.439484 713.791321,398.719727 714.000000,399.000000 
	C714.000000,401.041656 714.000000,403.083344 714.000000,405.562500 
z"/>
<path fill="#EA9E0A" opacity="1.000000" stroke="none" 
	d="
M714.000000,395.531342 
	C713.292480,396.084747 712.585022,396.169495 711.471680,395.795837 
	C711.376343,383.697296 711.686707,372.057098 712.262512,360.318237 
	C712.708008,360.163971 712.888062,360.108368 713.302368,360.061310 
	C713.536499,360.069824 714.000000,360.000000 714.000000,360.000000 
	C714.000000,371.687561 714.000000,383.375122 714.000000,395.531342 
z"/>
<path fill="#EC4226" opacity="1.000000" stroke="none" 
	d="
M710.982361,342.951324 
	C710.733643,338.593140 710.328735,334.234772 710.334106,329.876892 
	C710.335693,328.616028 711.514832,327.356598 712.523926,326.049286 
	C713.098328,326.278381 713.302856,326.554718 713.753662,326.915527 
	C714.000000,330.030609 714.000000,333.061188 713.748413,336.614532 
	C713.664551,337.758179 713.832275,338.379089 714.000000,339.000000 
	C714.000000,339.444458 714.000000,339.888885 713.710938,340.668701 
	C713.230042,341.021423 713.038147,341.038818 712.686401,341.261993 
	C712.011841,341.962311 711.497070,342.456818 710.982361,342.951324 
z"/>
<path fill="#F14023" opacity="1.000000" stroke="none" 
	d="
M381.000000,1.000000 
	C382.388885,1.000000 383.777802,1.000000 385.705475,1.319031 
	C387.477234,2.126842 388.710236,2.615622 389.623352,3.309027 
	C382.226410,3.339983 375.149323,3.166315 367.732056,2.772940 
	C364.328339,2.383532 361.264771,2.213830 358.151123,1.783058 
	C358.067352,1.347993 358.033661,1.173996 358.000000,1.000000 
	C362.689240,1.000000 367.378510,1.000000 372.843140,1.226425 
	C376.079010,1.301900 378.539520,1.150950 381.000000,1.000000 
z"/>
<path fill="#CC6853" opacity="1.000000" stroke="none" 
	d="
M712.846252,341.056183 
	C713.038147,341.038818 713.230042,341.021423 713.710938,341.002014 
	C714.000000,347.021149 714.000000,353.042297 714.000000,359.531738 
	C714.000000,360.000000 713.536499,360.069824 713.289673,359.588074 
	C712.977356,353.089630 712.911804,347.072906 712.846252,341.056183 
z"/>
<path fill="#42A442" opacity="1.000000" stroke="none" 
	d="
M310.958557,719.450073 
	C312.722656,718.468384 314.950745,716.494873 315.901306,720.651733 
	C314.611115,721.000000 313.222198,721.000000 311.416656,721.000000 
	C311.115570,720.737976 311.269714,720.484314 311.328857,720.210144 
	C311.354767,720.089966 311.186737,719.928040 310.958557,719.450073 
z"/>
<path fill="#B75E5C" opacity="1.000000" stroke="none" 
	d="
M389.943207,3.104404 
	C388.710236,2.615622 387.477234,2.126842 386.122131,1.319031 
	C388.041656,1.000000 390.083344,1.000000 392.562500,1.000000 
	C392.837616,1.611052 392.675201,2.222103 391.922729,2.994486 
	C390.869476,3.138680 390.406342,3.121543 389.943207,3.104404 
z"/>
<path fill="#B75E5C" opacity="1.000000" stroke="none" 
	d="
M380.555847,1.000000 
	C378.539520,1.150950 376.079010,1.301900 373.309265,1.226425 
	C375.370575,1.000000 377.741119,1.000000 380.555847,1.000000 
z"/>
<path fill="#D92F12" opacity="1.000000" stroke="none" 
	d="
M714.000000,338.666687 
	C713.832275,338.379089 713.664551,337.758179 713.748413,337.068634 
	C714.000000,337.444458 714.000000,337.888885 714.000000,338.666687 
z"/>
<path fill="#000000" opacity="1.000000" stroke="none" 
	d="
M391.375000,721.000000 
	C392.057922,720.761597 393.115845,720.523193 394.086884,720.642395 
	C393.250000,721.000000 392.500000,721.000000 391.375000,721.000000 
z"/>
<path fill="#B75E5C" opacity="1.000000" stroke="none" 
	d="
M357.750000,1.000000 
	C358.033661,1.173996 358.067352,1.347993 358.014343,1.970123 
	C357.797394,2.712785 357.588013,2.931620 357.299561,3.074761 
	C357.181702,2.620340 357.063873,2.165918 356.973022,1.355748 
	C357.000000,1.000000 357.500000,1.000000 357.750000,1.000000 
z"/>
<path fill="#000000" opacity="1.000000" stroke="none" 
	d="
M0.999999,318.333344 
	C1.195306,318.565155 1.390613,319.130280 1.292960,319.847717 
	C1.000000,319.555573 1.000000,319.111115 0.999999,318.333344 
z"/>
<path fill="#000000" opacity="1.000000" stroke="none" 
	d="
M315.666687,1.000000 
	C315.255524,1.222472 314.511017,1.444943 313.883270,1.333707 
	C314.444458,1.000000 314.888885,1.000000 315.666687,1.000000 
z"/>
<path fill="#000000" opacity="1.000000" stroke="none" 
	d="
M319.333313,721.000000 
	C319.548309,720.863953 320.096649,720.727966 320.822479,720.795959 
	C320.555542,721.000000 320.111115,721.000000 319.333313,721.000000 
z"/>
<path fill="#000000" opacity="1.000000" stroke="none" 
	d="
M714.000000,398.750000 
	C713.791321,398.719727 713.582581,398.439484 713.686951,398.079590 
	C714.000000,398.000000 714.000000,398.500000 714.000000,398.750000 
z"/>
<path fill="#FEFFFF" opacity="1.000000" stroke="none" 
	d="
M158.145935,356.048920 
	C158.254623,341.066742 158.428696,326.084686 158.458923,311.102356 
	C158.530502,275.625549 158.433426,240.148102 158.602768,204.671860 
	C158.702759,183.726685 169.675293,169.135727 190.367767,162.416550 
	C193.024658,161.800430 195.010834,161.386520 196.997009,160.972595 
	C242.593018,161.012558 288.189026,161.056961 333.785034,161.088058 
	C341.273132,161.093170 348.761322,161.039810 357.025635,160.953171 
	C358.204102,160.868927 358.606354,160.844986 359.465698,160.928528 
	C409.182709,161.038406 458.445007,161.320801 507.701324,160.899445 
	C526.286682,160.740479 540.611389,167.322067 550.855530,183.260956 
	C552.587585,191.022827 555.524597,198.396469 555.634094,205.811844 
	C556.147583,240.594284 555.863220,275.388245 555.905762,310.178040 
	C555.926147,326.818726 556.039856,343.459259 556.000244,360.545746 
	C555.867554,391.075531 555.825012,421.159424 555.831360,451.243347 
	C555.836121,473.843414 555.903687,496.443451 555.810181,519.408508 
	C553.094421,526.453491 550.511841,533.133545 547.716003,539.950073 
	C547.366821,540.385132 547.230835,540.683655 547.049805,540.987976 
	C547.004761,540.993713 547.012512,541.084229 546.709839,541.216431 
	C538.091431,550.932617 527.733582,556.692078 514.690796,558.007996 
	C513.861755,558.033630 513.390259,558.144226 512.455505,558.246582 
	C460.391724,558.286255 408.791260,558.334106 356.967102,558.278687 
	C356.743439,558.175476 356.263977,558.286011 355.778870,558.279419 
	C346.246796,558.382080 337.199860,558.491333 327.688538,558.491821 
	C322.772797,558.456055 318.321411,558.529053 313.431244,558.462280 
	C299.511353,558.297668 286.030060,558.223511 272.549103,558.261963 
	C259.413147,558.299438 246.277527,558.452148 232.704620,558.451233 
	C230.478302,558.404114 228.689117,558.460083 226.459656,558.390503 
	C221.713470,558.342773 217.407547,558.420654 212.649567,558.408569 
	C209.440186,558.369263 206.682877,558.419861 203.498169,558.347839 
	C197.073624,557.087280 191.076447,555.949280 185.086655,554.848022 
	C185.094025,554.884644 185.164230,554.859009 184.977570,554.612000 
	C184.207077,554.191833 183.623245,554.018738 183.051834,553.880066 
	C183.064255,553.914490 183.129349,553.881042 182.908676,553.619141 
	C180.813568,552.496643 178.939148,551.635986 177.040253,550.859375 
	C177.015793,550.943420 177.184418,550.990234 177.092728,550.707397 
	C176.679428,550.206177 176.357819,549.987854 175.913879,549.454407 
	C174.617538,548.302185 173.364395,547.555908 172.282089,546.613525 
	C163.577606,539.034241 159.554718,529.142822 158.318695,517.479858 
	C158.369781,486.022736 158.357040,455.023163 158.285675,424.023773 
	C158.236984,402.864716 158.106491,381.705872 158.125732,360.297241 
	C158.203323,359.690674 158.167740,359.333740 158.241302,358.618835 
	C158.282257,357.523499 158.214096,356.786224 158.145935,356.048920 
M292.500122,406.350525 
	C277.839600,406.350891 263.179047,406.333405 248.518631,406.371155 
	C246.362152,406.376709 244.173950,406.457275 242.055786,406.823364 
	C232.649475,408.449158 225.655548,416.369843 225.129410,425.832062 
	C224.614899,435.085175 230.476379,443.801392 239.369659,446.445618 
	C242.188370,447.283722 245.273682,447.528809 248.237396,447.531128 
	C321.373291,447.588135 394.509247,447.579803 467.645172,447.557037 
	C469.801636,447.556366 471.993683,447.471680 474.108490,447.090057 
	C485.512299,445.032196 492.865265,433.721283 490.240540,422.419281 
	C487.879761,412.253723 479.815491,406.371490 467.926849,406.365540 
	C409.784607,406.336578 351.642395,406.351440 292.500122,406.350525 
M307.499908,312.309082 
	C323.823883,312.309052 340.147888,312.309174 356.471863,312.308929 
	C393.783783,312.308350 431.095825,312.252319 468.407471,312.353210 
	C475.911591,312.373505 482.225311,310.174896 486.701752,304.024384 
	C491.521454,297.402161 492.276886,290.131165 488.620056,282.795074 
	C484.462097,274.453705 477.244019,271.187256 468.129547,271.192535 
	C394.671722,271.235016 321.213928,271.204346 247.756104,271.227020 
	C234.442810,271.231110 225.013565,279.938019 225.119583,291.961304 
	C225.225113,303.926697 234.372116,312.271088 247.533752,312.296844 
	C267.189056,312.335327 286.844482,312.308380 307.499908,312.309082 
z"/>
<path fill="#2C82F3" opacity="1.000000" stroke="none" 
	d="
M197.343185,160.746246 
	C195.010834,161.386520 193.024658,161.800430 190.658218,162.191483 
	C191.114319,158.269623 194.619339,158.591171 197.174942,158.436920 
	C206.801819,157.855865 216.454346,157.537659 226.099808,157.466522 
	C238.986923,157.371475 251.876678,157.693069 264.764801,157.657562 
	C275.675415,157.627502 286.585205,157.222626 297.495575,157.211044 
	C306.272766,157.201736 315.058746,157.852005 323.825165,157.618988 
	C331.918854,157.403870 340.048004,156.783447 348.051422,155.598022 
	C352.451691,154.946289 353.622101,150.620667 353.863861,146.731659 
	C354.190338,141.479416 354.174011,136.183990 353.927490,130.924774 
	C353.719940,126.496834 352.924377,122.098953 352.493591,117.677582 
	C352.353027,116.234772 352.404938,114.740570 352.608917,113.303963 
	C352.976196,110.717422 354.008087,108.139290 353.916718,105.587929 
	C353.426666,91.906250 351.390656,78.142349 352.356995,64.582756 
	C353.438385,49.409660 354.083923,34.280491 353.904266,19.108774 
	C353.837006,13.426887 353.676514,7.451344 348.904388,3.087472 
	C354.607086,0.870529 355.986542,1.732954 355.988190,7.690674 
	C356.001801,56.510605 355.938263,105.330704 356.083954,154.150192 
	C356.097809,158.800797 354.614624,160.095062 350.073059,160.082443 
	C301.420135,159.947205 252.766678,159.993256 204.113373,160.022949 
	C201.971939,160.024261 199.830688,160.346924 197.343185,160.746246 
z"/>
<path fill="#3B7EF5" opacity="1.000000" stroke="none" 
	d="
M157.794495,355.908813 
	C158.214096,356.786224 158.282257,357.523499 157.784607,358.625702 
	C151.965073,359.401978 146.711380,359.813324 140.973557,360.338806 
	C124.881805,360.380280 109.274170,360.307709 93.477554,360.175049 
	C92.637268,360.154602 91.985962,360.194214 90.856857,360.339966 
	C88.050461,360.490417 85.721992,360.561829 83.393219,360.574524 
	C65.590271,360.671631 47.787258,360.757294 29.984264,360.846497 
	C29.239998,360.780945 28.495731,360.715393 27.010887,360.666077 
	C25.505184,360.736359 24.740059,360.790436 23.974934,360.844513 
	C23.231171,360.778229 22.487410,360.711945 20.954933,360.662140 
	C18.438574,360.735779 16.710926,360.792969 14.983276,360.850159 
	C13.599537,360.786438 12.215797,360.722748 10.099823,360.663300 
	C8.916005,360.604767 8.464423,360.542023 8.012847,360.479248 
	C6.446454,359.743042 4.880056,359.006866 2.923646,358.087402 
	C3.064926,357.201538 3.256950,355.997498 3.442082,354.836700 
	C6.179620,355.258057 8.574825,355.918610 10.977261,355.946075 
	C21.444622,356.065613 31.916048,355.874329 42.382263,356.036652 
	C54.485428,356.224365 66.586090,356.981995 78.685326,356.928131 
	C102.809204,356.820770 126.931404,356.331421 151.054138,355.988434 
	C153.184387,355.958160 155.313431,355.843903 157.794495,355.908813 
z"/>
<path fill="#F82F0C" opacity="1.000000" stroke="none" 
	d="
M359.008606,160.821045 
	C358.606354,160.844986 358.204102,160.868927 357.497559,160.853851 
	C357.248932,139.886307 357.304596,118.957787 357.578156,97.388168 
	C357.679688,96.125481 357.563324,95.503883 357.446960,94.882278 
	C357.421326,89.263130 357.395660,83.643982 357.590637,77.258781 
	C357.679962,74.622055 357.548645,72.751381 357.417297,70.880699 
	C357.365845,48.588467 357.314362,26.296230 357.281219,3.539379 
	C357.588013,2.931620 357.797394,2.712785 358.064453,2.231192 
	C361.264771,2.213830 364.328339,2.383532 367.427551,2.990139 
	C365.379395,4.742466 361.732544,5.825244 361.495819,7.415615 
	C360.687164,12.848515 361.077667,18.459913 361.007019,24.402424 
	C361.007568,25.866390 361.011780,26.931139 361.009521,28.371960 
	C361.009491,29.500200 361.015900,30.252369 361.018677,31.448948 
	C361.018768,34.266106 361.022522,36.638855 360.797424,39.329506 
	C361.046509,42.430546 361.524475,45.213684 361.997986,48.425461 
	C361.674988,52.901897 361.356445,56.949699 361.026123,61.466103 
	C361.009796,64.744240 360.895844,67.558762 361.023895,70.362228 
	C361.277374,75.911995 361.664581,81.455658 361.994537,87.334579 
	C361.994080,88.110962 361.995605,88.554619 361.766998,89.339157 
	C361.376373,94.122765 361.215912,98.565483 361.047455,103.476242 
	C361.034729,111.294708 361.029968,118.645149 361.018555,126.444214 
	C360.710754,134.627518 360.140564,142.365524 360.236420,150.095276 
	C360.276611,153.337799 360.530426,157.522491 365.310974,157.921097 
	C371.585022,158.444244 377.883545,158.693024 384.175415,158.973694 
	C386.847656,159.092911 389.529633,158.993607 392.207153,158.993607 
	C386.391083,159.959229 380.597382,159.847549 374.810059,159.992172 
	C369.539307,160.123901 364.275482,160.533768 359.008606,160.821045 
z"/>
<path fill="#40A736" opacity="1.000000" stroke="none" 
	d="
M7.602449,360.528656 
	C8.464423,360.542023 8.916005,360.604767 9.694897,360.767090 
	C0.131380,367.686127 5.299047,377.521484 5.464499,386.034882 
	C5.661840,396.189117 7.382750,406.315308 8.477349,416.450012 
	C9.291865,423.991486 10.160022,431.527130 11.002123,439.532684 
	C10.999961,440.000000 10.994732,440.005280 10.994734,440.005280 
	C9.056690,430.827454 6.389937,421.731567 5.346805,412.453125 
	C3.669480,397.533722 3.024080,382.496307 2.056881,367.501404 
	C1.932256,365.569275 2.488703,363.593201 2.899518,361.243652 
	C4.443605,360.759247 5.817831,360.668640 7.602449,360.528656 
z"/>
<path fill="#72A3E2" opacity="1.000000" stroke="none" 
	d="
M15.270528,253.828339 
	C22.037649,235.369904 29.145132,216.824905 36.875065,198.137054 
	C37.701855,198.004745 37.906193,198.015305 38.110535,198.025848 
	C34.815041,205.825790 31.340166,213.555923 28.270706,221.443817 
	C24.652296,230.742401 21.416538,240.189331 17.932674,249.541321 
	C17.380331,251.024017 16.395668,252.345657 15.270528,253.828339 
z"/>
<path fill="#6AA4E3" opacity="1.000000" stroke="none" 
	d="
M38.385921,197.837296 
	C37.906193,198.015305 37.701855,198.004745 37.191040,197.977142 
	C39.045872,193.991440 41.207176,190.022781 43.700119,185.906708 
	C42.241608,189.722458 40.451458,193.685593 38.385921,197.837296 
z"/>
<path fill="#6AA4E3" opacity="1.000000" stroke="none" 
	d="
M45.193489,183.890564 
	C45.986256,181.679047 47.125603,179.391983 48.603630,176.998032 
	C47.808228,179.199097 46.674145,181.507065 45.193489,183.890564 
z"/>
<path fill="#6AA4E3" opacity="1.000000" stroke="none" 
	d="
M49.225193,176.900726 
	C49.678288,175.351181 50.481491,173.734161 51.619652,172.008392 
	C51.161503,173.544174 50.368401,175.188705 49.225193,176.900726 
z"/>
<path fill="#B75E5C" opacity="1.000000" stroke="none" 
	d="
M357.263428,71.306946 
	C357.548645,72.751381 357.679962,74.622055 357.622070,76.798874 
	C357.325134,75.314407 357.217346,73.523804 357.263428,71.306946 
z"/>
<path fill="#B75E5C" opacity="1.000000" stroke="none" 
	d="
M357.301300,95.243439 
	C357.563324,95.503883 357.679688,96.125481 357.615204,96.928055 
	C357.341461,96.607552 357.248535,96.106071 357.301300,95.243439 
z"/>
<path fill="#6AA4E3" opacity="1.000000" stroke="none" 
	d="
M52.989002,170.920685 
	C52.883301,171.018082 52.971317,170.526672 53.065811,170.296021 
	C53.329674,170.345215 53.307804,170.597870 52.989002,170.920685 
z"/>
<path fill="#6AA4E3" opacity="1.000000" stroke="none" 
	d="
M52.136765,171.862503 
	C52.093353,171.681778 52.272873,171.354416 52.730438,170.950455 
	C52.792217,171.154526 52.575954,171.435196 52.136765,171.862503 
z"/>
<path fill="#6AA4E3" opacity="1.000000" stroke="none" 
	d="
M44.302299,184.994080 
	C44.210693,184.820694 44.304585,184.453751 44.695511,183.973846 
	C44.824295,184.174103 44.656048,184.487305 44.302299,184.994080 
z"/>
<path fill="#2C82F3" opacity="1.000000" stroke="none" 
	d="
M335.508209,2.512080 
	C335.487183,2.519955 335.529236,2.504205 335.508209,2.512080 
z"/>
<path fill="#3DAA3B" opacity="1.000000" stroke="none" 
	d="
M158.229874,517.937561 
	C159.554718,529.142822 163.577606,539.034241 172.282089,546.613525 
	C173.364395,547.555908 174.617538,548.302185 176.065918,549.692810 
	C176.621689,550.494263 176.903061,550.742249 177.184418,550.990234 
	C177.184418,550.990234 177.015793,550.943420 177.142288,551.157898 
	C177.823822,552.251526 178.378860,553.130615 178.933884,554.009766 
	C176.099899,552.234192 172.881134,550.856689 170.528580,548.583008 
	C167.532883,545.687866 165.297150,542.019104 162.630646,538.768372 
	C153.271179,527.358459 154.761261,513.359802 154.227859,500.211609 
	C153.377594,479.251923 154.002182,458.232452 154.001633,437.238251 
	C154.001038,413.804260 153.998779,390.370239 154.332184,366.468262 
	C155.113312,366.001434 155.559525,366.002533 156.167877,366.387299 
	C156.554611,369.068298 156.973221,371.365479 156.975159,373.663025 
	C157.013824,419.539398 156.987320,465.415863 157.056702,511.292145 
	C157.060059,513.507874 157.821472,515.722473 158.229874,517.937561 
z"/>
<path fill="#2B9237" opacity="1.000000" stroke="none" 
	d="
M356.663208,564.050232 
	C333.657318,563.368408 310.655121,562.423523 287.644165,562.097229 
	C272.273621,561.879272 256.889435,562.488525 241.513565,562.827393 
	C230.458664,563.070984 219.366562,564.195801 208.368439,563.569214 
	C200.663788,563.130249 193.089615,560.400940 185.199738,558.883545 
	C183.305679,557.633240 181.669052,556.193848 180.343353,554.397583 
	C181.479294,553.987549 182.304321,553.934265 183.129349,553.881042 
	C183.129349,553.881042 183.064255,553.914490 183.256485,554.111145 
	C184.020554,554.491516 184.592392,554.675293 185.164230,554.859009 
	C185.164230,554.859009 185.094025,554.884644 185.254150,555.166870 
	C189.617126,556.658020 193.819977,557.867065 198.371094,559.294128 
	C200.862350,559.674622 203.005280,559.977722 205.148376,559.978821 
	C252.940094,560.002747 300.731812,559.987549 348.523560,560.005554 
	C351.180756,560.006592 353.837860,560.229919 356.605804,560.707275 
	C356.698792,562.059937 356.681000,563.055115 356.663208,564.050232 
z"/>
<path fill="#40A736" opacity="1.000000" stroke="none" 
	d="
M30.019985,361.235535 
	C47.787258,360.757294 65.590271,360.671631 83.393219,360.574524 
	C85.721992,360.561829 88.050461,360.490417 91.136154,360.459991 
	C92.484344,360.394226 93.075439,360.314667 93.666534,360.235107 
	C109.274170,360.307709 124.881805,360.380280 141.125656,360.698059 
	C144.511566,361.249481 147.261261,361.555756 150.010956,361.862030 
	C146.910919,365.530487 142.809540,365.019135 138.713562,364.592102 
	C136.180466,364.327972 133.643173,364.089478 131.102402,363.919800 
	C129.945358,363.842529 128.775375,363.983063 127.611183,363.985046 
	C114.669159,364.007019 101.725784,363.909027 88.785439,364.065094 
	C71.695992,364.271179 54.609100,364.816010 37.520641,364.837341 
	C35.033665,364.840454 32.544079,362.747528 30.019985,361.235535 
z"/>
<path fill="#70A470" opacity="1.000000" stroke="none" 
	d="
M45.939415,535.840698 
	C45.143913,535.570984 43.973743,535.107788 43.513119,534.259277 
	C31.642447,512.393127 21.737484,489.698547 14.713128,465.359436 
	C15.057681,465.039612 15.586852,465.088684 16.656109,465.499939 
	C18.837593,470.919922 20.478994,475.977783 22.141075,481.322632 
	C22.415478,482.116669 22.669197,482.623779 23.004955,483.487183 
	C24.692886,487.906036 26.298779,491.968597 27.904673,496.031128 
	C32.874584,506.909698 37.845688,517.787720 42.813419,528.667236 
	C43.847145,530.931152 44.868389,533.200684 45.939415,535.840698 
z"/>
<path fill="#40A736" opacity="1.000000" stroke="none" 
	d="
M28.237560,495.912903 
	C26.298779,491.968597 24.692886,487.906036 22.985828,483.195831 
	C22.629908,482.043976 22.375153,481.539825 22.120398,481.035645 
	C20.478994,475.977783 18.837593,470.919922 17.052431,465.525238 
	C16.382097,462.154968 15.855527,459.121490 15.328956,456.088043 
	C15.752912,455.955292 16.176868,455.822510 16.600824,455.689758 
	C17.509933,458.538025 18.399303,461.392761 19.333908,464.232605 
	C20.202545,466.872009 21.072498,469.512634 22.024107,472.122772 
	C24.545614,479.038818 27.171446,485.917969 29.575111,492.874237 
	C29.839893,493.640503 28.933605,494.811462 28.237560,495.912903 
z"/>
<path fill="#3586EC" opacity="1.000000" stroke="none" 
	d="
M150.376953,361.775330 
	C147.261261,361.555756 144.511566,361.249481 141.609772,360.583984 
	C146.711380,359.813324 151.965073,359.401978 157.675476,358.983704 
	C158.167740,359.333740 158.203323,359.690674 157.778275,360.344421 
	C156.756470,361.009918 156.195297,361.378601 155.302155,361.704407 
	C154.306610,361.722809 153.643021,361.784119 152.979446,361.845398 
	C152.233948,361.793152 151.488449,361.740875 150.376953,361.775330 
z"/>
<path fill="#40A736" opacity="1.000000" stroke="none" 
	d="
M11.002550,439.997742 
	C13.804005,443.785339 17.192476,447.408234 15.259766,452.537628 
	C14.759027,452.670563 14.258288,452.803497 13.757550,452.936432 
	C12.855684,448.892883 11.953818,444.849335 11.023342,440.405518 
	C10.994732,440.005280 10.999961,440.000000 11.002550,439.997742 
z"/>
<path fill="#7CAA71" opacity="1.000000" stroke="none" 
	d="
M101.971428,611.957886 
	C98.295784,608.467285 94.570572,604.612183 90.831421,600.393433 
	C94.518936,603.884399 98.220398,607.738892 101.971428,611.957886 
z"/>
<path fill="#7CAA71" opacity="1.000000" stroke="none" 
	d="
M124.930969,633.746277 
	C121.344612,630.957642 117.689095,627.830933 113.971405,624.356995 
	C117.560097,627.142578 121.210960,630.275391 124.930969,633.746277 
z"/>
<path fill="#40A736" opacity="1.000000" stroke="none" 
	d="
M15.023596,361.236389 
	C16.710926,360.792969 18.438574,360.735779 20.591599,360.761963 
	C19.302202,364.922180 17.816500,365.116150 15.023596,361.236389 
z"/>
<path fill="#7CAA71" opacity="1.000000" stroke="none" 
	d="
M131.897614,639.708740 
	C129.704819,638.242004 127.383705,636.466797 124.989365,634.346313 
	C127.200516,635.800842 129.484909,637.600586 131.897614,639.708740 
z"/>
<path fill="#40A736" opacity="1.000000" stroke="none" 
	d="
M153.033936,362.199402 
	C153.643021,361.784119 154.306610,361.722809 155.550430,361.937622 
	C156.089020,363.477020 156.047363,364.740356 156.005722,366.003662 
	C155.559525,366.002533 155.113312,366.001434 154.332428,365.999542 
	C153.694626,364.850342 153.391510,363.701874 153.033936,362.199402 
z"/>
<path fill="#7CAA71" opacity="1.000000" stroke="none" 
	d="
M136.096268,643.527710 
	C134.820709,642.792297 133.467850,641.727783 132.048874,640.319153 
	C133.328171,641.049561 134.673569,642.124146 136.096268,643.527710 
z"/>
<path fill="#348B3F" opacity="1.000000" stroke="none" 
	d="
M182.908676,553.619141 
	C182.304321,553.934265 181.479294,553.987549 180.237915,554.075073 
	C179.821579,554.109314 179.378845,554.055908 179.156372,554.032837 
	C178.378860,553.130615 177.823822,552.251526 177.166748,551.073853 
	C178.939148,551.635986 180.813568,552.496643 182.908676,553.619141 
z"/>
<path fill="#348B3F" opacity="1.000000" stroke="none" 
	d="
M290.041687,715.591797 
	C289.851318,715.901306 289.685913,715.935730 289.267761,715.955811 
	C288.761078,715.092163 288.507111,714.242737 288.253174,713.393311 
	C288.535309,713.262817 288.817444,713.132324 289.099579,713.001831 
	C289.421936,713.773376 289.744324,714.544983 290.041687,715.591797 
z"/>
<path fill="#40A736" opacity="1.000000" stroke="none" 
	d="
M24.063469,361.155090 
	C24.740059,360.790436 25.505184,360.736359 26.647188,360.764771 
	C26.066713,361.053375 25.109360,361.259491 24.063469,361.155090 
z"/>
<path fill="#7CAA71" opacity="1.000000" stroke="none" 
	d="
M113.925323,623.773926 
	C113.345970,623.619202 112.695724,623.148376 111.976768,622.342285 
	C112.556847,622.490662 113.205635,622.974243 113.925323,623.773926 
z"/>
<path fill="#7CAA71" opacity="1.000000" stroke="none" 
	d="
M111.917313,621.759949 
	C111.354286,621.563477 110.712883,621.039124 109.899429,620.248596 
	C110.431244,620.465637 111.135094,620.948853 111.917313,621.759949 
z"/>
<path fill="#7CAA71" opacity="1.000000" stroke="none" 
	d="
M104.806953,615.117310 
	C104.667297,615.098450 104.322334,614.811951 103.773628,614.255371 
	C103.913803,614.273438 104.257721,614.561584 104.806953,615.117310 
z"/>
<path fill="#EA9E0A" opacity="1.000000" stroke="none" 
	d="
M356.764038,564.440796 
	C356.681000,563.055115 356.698792,562.059937 356.601929,560.673950 
	C356.487274,560.283081 356.434692,560.241272 356.593689,560.075500 
	C356.857544,559.618774 356.962036,559.327698 357.140503,558.881042 
	C357.214844,558.725647 357.190765,558.381958 357.190765,558.381958 
	C408.791260,558.334106 460.391724,558.286255 512.645142,558.399658 
	C513.881470,558.404907 514.464966,558.248901 515.048401,558.092896 
	C527.733582,556.692078 538.091431,550.932617 546.737915,541.532593 
	C547.818848,542.066284 549.131592,542.841980 549.236633,542.703247 
	C551.610535,539.568298 554.468140,536.599731 555.997925,533.064697 
	C559.880920,524.091553 561.824585,514.804260 561.233704,504.735962 
	C560.613525,494.169678 561.870422,483.506409 561.956726,472.882690 
	C562.110352,453.967957 562.026611,435.051086 561.974609,416.135254 
	C561.965515,412.840454 561.422180,409.543457 561.473083,406.252838 
	C561.659851,394.174286 561.882141,382.093262 562.398926,370.026337 
	C562.470764,368.349030 564.007324,365.584747 565.305115,365.295593 
	C573.966309,363.365723 582.564209,361.294556 591.685608,361.849915 
	C602.298035,362.496063 612.981140,362.075714 623.630798,361.925415 
	C625.419556,361.900177 627.194580,360.898834 629.393555,360.283569 
	C631.214783,360.258789 632.618408,360.299042 634.185669,360.636902 
	C636.559143,360.733856 638.769104,360.533264 641.413818,360.267761 
	C643.896301,360.241638 645.943970,360.280457 648.184998,360.643433 
	C650.278931,361.311768 652.178162,361.945190 654.080383,361.954559 
	C670.404480,362.034943 686.729126,362.001465 703.053650,362.004822 
	C705.440063,362.005310 707.872314,361.840546 707.977783,365.339996 
	C708.201782,372.772522 709.199829,380.255554 708.627502,387.620483 
	C707.830627,397.876495 706.007751,408.062866 704.377869,418.239594 
	C703.632141,422.895630 702.184326,427.434814 701.264526,432.068604 
	C700.316528,436.844116 699.852478,441.723267 698.756042,446.459686 
	C697.608337,451.417542 695.936035,456.252655 694.536194,461.153748 
	C692.033875,469.914551 690.201355,478.933105 686.906677,487.382965 
	C683.399719,496.377228 678.461853,504.808624 674.321533,513.567444 
	C673.834412,514.598022 674.439575,516.144958 674.538391,517.452515 
	C675.535828,516.638794 677.009949,516.028687 677.457764,514.980225 
	C682.550964,503.054413 687.435181,491.039490 692.504395,479.103210 
	C693.697754,476.293243 695.373657,473.688202 696.827637,470.988892 
	C694.888733,477.823883 693.688110,484.982758 690.860474,491.427856 
	C684.539917,505.834290 677.782227,520.080933 670.480042,534.013916 
	C665.341492,543.818542 659.161255,553.094788 653.165527,562.426697 
	C649.011292,568.892395 644.668396,575.281677 639.882751,581.284912 
	C634.633972,587.869202 628.779968,593.971069 622.678345,600.646118 
	C616.461426,607.020203 610.755859,613.031311 605.050293,619.042480 
	C604.565186,619.655640 604.080017,620.268799 603.055298,621.064819 
	C602.112793,621.785034 601.709961,622.322449 601.307068,622.859802 
	C595.343323,628.280945 589.423950,633.751953 583.402222,639.107971 
	C578.307068,643.639893 573.252136,648.243225 567.870056,652.416016 
	C564.852966,654.755310 561.207581,656.284180 557.154297,658.285645 
	C552.493530,661.285767 548.523804,664.178406 544.554077,667.071045 
	C538.281250,670.952576 532.074219,674.946411 525.710815,678.673218 
	C521.917480,680.894775 517.917480,682.779053 513.940674,684.668213 
	C508.627502,687.192261 503.246674,689.573792 497.521973,692.036133 
	C493.419312,693.074097 489.539978,693.724304 485.983612,695.169373 
	C458.510254,706.332397 430.057037,713.755981 400.618744,717.052246 
	C386.423523,718.641785 372.101044,719.094421 357.356689,720.057007 
	C356.873108,668.311829 356.869019,616.571594 356.764038,564.440796 
z"/>
<path fill="#F19C04" opacity="1.000000" stroke="none" 
	d="
M696.905884,470.762146 
	C695.373657,473.688202 693.697754,476.293243 692.504395,479.103210 
	C687.435181,491.039490 682.550964,503.054413 677.457764,514.980225 
	C677.009949,516.028687 675.535828,516.638794 674.538391,517.452515 
	C674.439575,516.144958 673.834412,514.598022 674.321533,513.567444 
	C678.461853,504.808624 683.399719,496.377228 686.906677,487.382965 
	C690.201355,478.933105 692.033875,469.914551 694.536194,461.153748 
	C695.936035,456.252655 697.608337,451.417542 698.756042,446.459686 
	C699.852478,441.723267 700.316528,436.844116 701.264526,432.068604 
	C702.184326,427.434814 703.632141,422.895630 704.377869,418.239594 
	C706.007751,408.062866 707.830627,397.876495 708.627502,387.620483 
	C709.199829,380.255554 708.201782,372.772522 707.977783,365.339996 
	C707.872314,361.840546 705.440063,362.005310 703.053650,362.004822 
	C686.729126,362.001465 670.404480,362.034943 654.080383,361.954559 
	C652.178162,361.945190 650.278931,361.311768 648.650391,360.572510 
	C669.947266,360.257263 690.972229,360.337097 711.997131,360.416931 
	C711.686707,372.057098 711.376343,383.697296 711.116272,395.822479 
	C711.073547,397.648621 710.980469,398.989746 710.642334,401.005310 
	C710.302795,402.548248 710.208252,403.416718 710.113708,404.285217 
	C710.055664,405.628235 709.997620,406.971283 709.689941,408.949371 
	C709.336853,410.163239 709.233459,410.742035 709.130066,411.320801 
	C709.049927,412.662781 708.969788,414.004791 708.644836,415.980164 
	C708.308044,417.183685 708.216064,417.753876 708.124084,418.324036 
	C708.089844,419.015656 708.055603,419.707306 707.746948,420.973755 
	C707.355164,422.139435 707.237793,422.730316 707.120483,423.321198 
	C707.067627,424.642487 707.014771,425.963776 706.716736,427.862061 
	C706.344543,428.748352 706.217529,429.057648 706.090515,429.366943 
	C706.057373,430.356079 706.024170,431.345184 705.740784,432.893494 
	C705.360718,433.775421 705.230774,434.098145 705.100830,434.420868 
	C705.110840,434.774872 705.120850,435.128876 704.843994,436.019196 
	C704.417725,437.489044 704.278198,438.422546 704.138611,439.356079 
	C703.755371,441.653778 703.372131,443.951477 702.715149,446.894104 
	C701.996704,450.438721 701.552002,453.338379 701.107361,456.238068 
	C701.107361,456.238068 701.111389,456.615997 700.774658,456.862427 
	C700.320435,457.760071 700.202881,458.411285 700.085266,459.062531 
	C700.085266,459.062531 699.990906,459.534332 699.596802,459.894714 
	C698.496643,463.525543 697.790649,466.795929 697.084595,470.066345 
	C697.084595,470.066345 696.984070,470.535431 696.905884,470.762146 
z"/>
<path fill="#ECBF7A" opacity="1.000000" stroke="none" 
	d="
M605.399902,618.983032 
	C610.755859,613.031311 616.461426,607.020203 622.499512,600.931274 
	C618.757202,608.407715 613.264709,614.621704 605.399902,618.983032 
z"/>
<path fill="#EAC485" opacity="1.000000" stroke="none" 
	d="
M544.966797,667.084900 
	C548.523804,664.178406 552.493530,661.285767 556.789917,658.299988 
	C555.085815,663.654480 549.986145,665.051208 544.966797,667.084900 
z"/>
<path fill="#EA9E0A" opacity="1.000000" stroke="none" 
	d="
M701.510193,456.188660 
	C701.552002,453.338379 701.996704,450.438721 702.682861,447.287628 
	C703.100586,447.049500 703.276733,447.062805 703.713135,447.123291 
	C703.286560,450.160065 702.599792,453.149658 701.510193,456.188660 
z"/>
<path fill="#EA9E0A" opacity="1.000000" stroke="none" 
	d="
M697.416504,469.876831 
	C697.790649,466.795929 698.496643,463.525543 699.521118,460.123108 
	C699.142517,463.223175 698.445496,466.455231 697.416504,469.876831 
z"/>
<path fill="#EA9E0A" opacity="1.000000" stroke="none" 
	d="
M700.378540,458.926941 
	C700.202881,458.411285 700.320435,457.760071 700.689331,457.031006 
	C700.851135,457.565887 700.761536,458.178619 700.378540,458.926941 
z"/>
<path fill="#ECBF7A" opacity="1.000000" stroke="none" 
	d="
M601.537354,622.756226 
	C601.709961,622.322449 602.112793,621.785034 602.770996,621.158936 
	C602.606750,621.597656 602.187134,622.125122 601.537354,622.756226 
z"/>
<path fill="#EC4226" opacity="1.000000" stroke="none" 
	d="
M707.834717,300.019226 
	C706.745544,296.088470 705.483948,292.196228 704.595886,288.220520 
	C699.677917,266.203705 693.847473,244.470108 685.053040,223.628525 
	C683.070679,218.930527 681.117188,214.220276 679.463257,209.261444 
	C680.809631,209.797806 681.843262,210.588409 682.876831,211.379013 
	C686.291077,219.436066 689.815857,227.448700 693.077393,235.567139 
	C694.976013,240.293121 696.674927,245.125107 698.074036,250.020767 
	C701.189209,260.921326 704.190125,271.858917 706.963074,282.850647 
	C708.029724,287.078613 708.350159,291.494843 708.719238,296.505859 
	C708.230225,298.130676 708.032471,299.074951 707.834717,300.019226 
z"/>
<path fill="#DA4936" opacity="1.000000" stroke="none" 
	d="
M584.425720,82.738495 
	C583.342468,82.817207 581.911804,82.967400 581.013428,82.346893 
	C565.526184,71.650124 550.099487,60.865410 534.680603,50.069920 
	C533.751709,49.419537 532.998962,48.517574 532.033691,47.422173 
	C538.326599,50.587543 544.950134,53.744442 551.124084,57.618023 
	C559.289612,62.741199 567.210083,68.277916 575.018250,73.937210 
	C578.400879,76.388885 581.239990,79.590401 584.425720,82.738495 
z"/>
<path fill="#D2766B" opacity="1.000000" stroke="none" 
	d="
M682.938843,210.971832 
	C681.843262,210.588409 680.809631,209.797806 679.480286,208.873413 
	C677.123901,204.252579 675.034485,199.778427 673.013855,195.273438 
	C671.890930,192.769730 670.882874,190.214523 669.878540,187.386307 
	C671.018188,187.965805 672.549255,188.619324 673.113220,189.753632 
	C676.531616,196.629715 679.729309,203.615524 682.938843,210.971832 
z"/>
<path fill="#D86252" opacity="1.000000" stroke="none" 
	d="
M666.995544,181.415405 
	C662.912903,175.402878 658.956299,169.036743 655.020508,162.295715 
	C657.039062,164.325867 659.347839,166.540894 660.960327,169.181229 
	C663.279846,172.979126 665.092590,177.086502 666.995544,181.415405 
z"/>
<path fill="#D86252" opacity="1.000000" stroke="none" 
	d="
M655.065735,161.597794 
	C650.999573,156.410049 646.913574,150.845810 642.967529,145.011108 
	C647.086975,150.234207 651.066406,155.727737 655.065735,161.597794 
z"/>
<path fill="#DA4936" opacity="1.000000" stroke="none" 
	d="
M606.024719,104.021225 
	C601.213867,99.409386 596.403015,94.797546 591.646484,89.839058 
	C596.247803,93.612762 600.794739,97.733116 605.653931,102.345299 
	C605.985718,103.231819 606.005188,103.626526 606.024719,104.021225 
z"/>
<path fill="#DB4C39" opacity="1.000000" stroke="none" 
	d="
M625.054077,122.527985 
	C621.423584,119.469040 617.786682,116.059555 614.384399,112.334236 
	C615.029114,112.019630 615.439270,112.020859 615.849365,112.022095 
	C618.915466,115.407211 621.981628,118.792328 625.054077,122.527985 
z"/>
<path fill="#D68176" opacity="1.000000" stroke="none" 
	d="
M615.904907,111.673233 
	C615.439270,112.020859 615.029114,112.019630 614.311768,112.002838 
	C614.004517,111.987282 613.999451,112.001511 613.876587,111.796021 
	C613.543335,111.338295 613.288696,111.143982 612.989868,111.007599 
	C612.989868,111.007599 613.000000,111.000305 612.872070,110.797905 
	C612.543213,110.334862 612.293823,110.134697 611.995850,109.995026 
	C611.995850,109.995026 611.997559,110.001823 611.879028,109.808441 
	C611.560852,109.368843 611.307495,109.206070 611.000549,109.126747 
	C610.193115,108.219368 609.385681,107.312004 608.212280,105.968414 
	C607.571716,105.317871 607.296997,105.103539 607.022278,104.889221 
	C606.847290,104.646675 606.638489,104.437889 606.210327,104.142044 
	C606.005188,103.626526 605.985718,103.231819 605.944031,102.541557 
	C609.268066,105.272125 612.614258,108.298256 615.904907,111.673233 
z"/>
<path fill="#D56C57" opacity="1.000000" stroke="none" 
	d="
M709.928406,302.580505 
	C710.610168,306.743927 711.291931,310.907318 711.611084,315.502380 
	C710.866882,315.922058 710.485352,315.910095 710.103821,315.898163 
	C710.103821,315.898163 710.042114,315.914825 710.089783,315.546082 
	C709.782288,313.447479 709.427185,311.717621 709.072083,309.987732 
	C709.072083,309.987732 709.034729,309.974762 709.091370,309.540710 
	C709.408142,306.931244 709.668274,304.755890 709.928406,302.580505 
z"/>
<path fill="#DA4936" opacity="1.000000" stroke="none" 
	d="
M591.372253,88.876984 
	C589.218201,87.492630 586.937988,85.826988 584.721069,83.816093 
	C586.938293,85.179123 589.092163,86.887413 591.372253,88.876984 
z"/>
<path fill="#EC4226" opacity="1.000000" stroke="none" 
	d="
M710.075806,316.333008 
	C710.485352,315.910095 710.866882,315.922058 711.535339,315.936890 
	C711.882385,318.331207 711.942505,320.722656 711.946899,323.557098 
	C711.276794,321.589386 710.662354,319.178619 710.075806,316.333008 
z"/>
<path fill="#EC4226" opacity="1.000000" stroke="none" 
	d="
M709.970520,302.477844 
	C709.668274,304.755890 709.408142,306.931244 709.108398,309.530518 
	C708.632996,307.448853 708.197144,304.943298 708.251709,302.207306 
	C709.121155,302.050507 709.500183,302.124146 709.879211,302.197784 
	C709.879211,302.197784 710.012634,302.375183 709.970520,302.477844 
z"/>
<path fill="#D56C57" opacity="1.000000" stroke="none" 
	d="
M709.955566,301.770447 
	C709.500183,302.124146 709.121155,302.050507 708.456909,301.938080 
	C708.101379,301.480927 708.031067,301.062592 707.897766,300.331726 
	C708.032471,299.074951 708.230225,298.130676 708.666748,296.910919 
	C709.281006,298.204681 709.656433,299.773926 709.955566,301.770447 
z"/>
<path fill="#DA4936" opacity="1.000000" stroke="none" 
	d="
M531.103638,46.637363 
	C529.407715,46.015217 527.583069,45.060719 525.753052,43.763115 
	C527.490051,44.381676 529.232483,45.343346 531.103638,46.637363 
z"/>
<path fill="#DA4936" opacity="1.000000" stroke="none" 
	d="
M525.292419,42.917530 
	C524.715454,42.912373 523.967834,42.668526 523.133667,42.088570 
	C523.738708,42.061253 524.430176,42.370049 525.292419,42.917530 
z"/>
<path fill="#42A442" opacity="1.000000" stroke="none" 
	d="
M297.948364,717.440796 
	C299.369690,717.164490 301.048126,717.196289 302.851135,717.540710 
	C301.385620,717.818542 299.795502,717.783752 297.948364,717.440796 
z"/>
<path fill="#42A442" opacity="1.000000" stroke="none" 
	d="
M306.384094,718.965088 
	C306.936646,718.680969 307.855743,718.463501 308.868103,718.527832 
	C308.224426,718.883606 307.487549,718.957703 306.384094,718.965088 
z"/>
<path fill="#EC3D20" opacity="1.000000" stroke="none" 
	d="
M507.012360,37.996414 
	C509.265442,41.896545 512.157532,44.690544 517.016296,45.236179 
	C518.512329,45.404175 519.657104,47.668545 521.232788,48.326153 
	C531.274719,52.517223 539.249207,59.883938 548.334595,65.427063 
	C552.523499,67.982796 557.205566,70.296097 561.431641,73.045372 
	C568.172607,77.430771 575.126709,81.686279 581.113953,86.987045 
	C590.513428,95.308846 599.211426,104.426308 608.148010,113.266014 
	C611.673218,116.752983 615.081726,120.361023 618.466675,123.985573 
	C620.704163,126.381416 622.900269,128.828766 624.945312,131.388519 
	C628.200867,135.463440 630.821106,139.801849 635.020325,143.400269 
	C639.543762,147.276489 641.838989,153.699402 645.304688,158.878479 
	C648.795227,164.094711 653.059753,168.862747 656.010376,174.351242 
	C659.061340,180.026505 664.718079,183.640671 666.134094,190.908981 
	C667.477417,197.803940 672.229980,204.016937 675.340820,210.597214 
	C676.164673,212.339767 676.485901,214.324600 676.987427,216.211609 
	C677.112671,216.682938 676.862244,217.313980 677.087585,217.689926 
	C682.195068,226.211365 684.161621,235.863800 687.442749,245.055893 
	C689.401184,250.542404 691.513245,255.710983 692.148254,261.587433 
	C692.536377,265.179047 694.047668,268.773315 695.643127,272.082550 
	C698.307678,277.609100 700.191467,282.957550 699.823914,289.431213 
	C699.603333,293.317139 698.414917,297.900116 701.675232,301.876953 
	C703.429321,304.016571 703.869995,307.362061 704.525879,310.249146 
	C706.608582,319.416260 709.862854,328.504822 706.727783,338.380798 
	C703.384705,335.366638 700.409424,332.020752 697.276306,328.829803 
	C676.428955,307.598145 655.585510,286.362427 634.664429,265.203583 
	C620.865967,251.248260 606.931091,237.427826 593.083801,223.520660 
	C591.565674,221.995987 590.322693,220.193924 588.781677,218.695862 
	C578.549072,208.748672 568.269958,198.849319 557.844482,188.673981 
	C556.784119,187.291580 555.885193,186.169632 554.985962,184.660309 
	C552.307556,175.013031 545.568359,169.154556 537.922729,163.641022 
	C535.858887,158.895294 531.648193,159.602097 528.003235,159.001556 
	C528.000000,159.000000 527.995728,158.995117 527.893555,158.681641 
	C526.862549,157.912521 525.933716,157.456879 525.002441,157.000610 
	C525.000000,157.000000 524.997559,156.996063 524.876648,156.642395 
	C522.865234,155.527771 521.011230,154.245117 519.076965,154.109894 
	C514.448730,153.786285 509.780426,154.096573 505.132416,153.982956 
	C492.954224,153.685272 480.685242,154.084106 468.635498,152.658234 
	C461.117004,151.768524 454.190491,153.400909 446.668701,153.998093 
	C445.888550,153.998123 445.442749,153.998123 444.655060,153.766937 
	C436.974640,152.829178 429.646088,151.971817 422.293030,151.484741 
	C419.008911,151.267212 415.677490,151.876526 412.363831,151.956726 
	C409.644745,152.022537 407.660614,151.163300 408.558533,147.817337 
	C409.391388,144.713715 407.712433,143.973160 405.092194,144.008087 
	C402.423065,144.043671 399.630920,144.223724 400.297668,147.916763 
	C400.924652,151.389374 399.189117,151.942459 396.460663,152.008667 
	C394.305573,152.060974 392.136292,152.522842 390.008881,152.354095 
	C388.708374,152.250946 386.689026,151.594543 386.345337,150.678818 
	C384.701935,146.300674 381.358276,145.920242 377.454895,145.962479 
	C371.627655,146.025558 369.173401,143.884109 369.136353,138.014862 
	C369.113983,134.469711 370.276917,130.926361 370.782898,127.364540 
	C371.026520,125.649666 371.014771,123.894806 371.061157,122.156517 
	C371.125122,119.760918 370.553741,117.165161 371.291016,115.009682 
	C372.730286,110.801613 372.349152,107.071190 370.871490,102.946159 
	C369.882751,100.185974 369.023010,96.071632 370.353088,94.021309 
	C375.386108,86.263130 368.702332,78.479515 371.234772,70.938118 
	C371.270569,70.831482 371.043427,70.660027 371.013977,70.504608 
	C369.670410,63.419975 367.487640,56.367458 367.204163,49.239555 
	C366.810822,39.349266 367.704895,29.393415 368.331940,19.483612 
	C368.602081,15.214189 372.115936,13.499510 375.700409,13.390945 
	C381.083038,13.227915 386.779022,12.953848 391.812225,14.476960 
	C397.519989,16.204216 402.711945,14.676358 408.146057,14.686084 
	C414.253571,14.697013 420.385101,16.207468 426.452026,17.352547 
	C429.273804,17.885143 431.917175,19.628954 434.729340,19.895071 
	C442.080292,20.590706 449.453552,20.656141 456.543762,23.309624 
	C460.160431,24.663153 464.159393,24.958328 467.889435,26.057945 
	C470.604858,26.858438 473.235382,28.048983 475.771484,29.327946 
	C478.525452,30.716785 480.974243,32.828571 483.831818,33.864643 
	C487.513763,35.199577 491.460785,35.819347 495.312714,36.659782 
	C496.508972,36.920776 497.767242,36.897667 499.402802,37.010643 
	C502.209778,37.343246 504.611084,37.669830 507.012360,37.996414 
z"/>
<path fill="#D03718" opacity="1.000000" stroke="none" 
	d="
M558.005981,188.934402 
	C568.269958,198.849319 578.549072,208.748672 588.781677,218.695862 
	C590.322693,220.193924 591.565674,221.995987 593.083801,223.520660 
	C606.931091,237.427826 620.865967,251.248260 634.664429,265.203583 
	C655.585510,286.362427 676.428955,307.598145 697.276306,328.829803 
	C700.409424,332.020752 703.384705,335.366638 706.721191,338.805267 
	C707.897888,340.134552 708.786377,341.299438 709.825745,343.148987 
	C709.665222,345.966125 709.122498,348.094727 709.086975,350.231750 
	C708.991821,355.960815 708.334961,356.843781 702.396729,356.955383 
	C695.134033,357.091858 687.866943,356.997955 680.601746,356.998199 
	C645.810120,356.999359 611.018372,357.026520 576.226929,356.951202 
	C573.098511,356.944427 569.740417,356.846649 566.921692,355.714172 
	C564.897644,354.901001 562.646729,352.504272 562.183899,350.436401 
	C561.409546,346.976807 562.051636,343.214294 561.975342,339.581818 
	C561.677063,325.378601 561.185608,311.177582 561.067749,296.973236 
	C561.014160,290.513977 561.791809,284.051819 561.942322,277.585144 
	C562.018799,274.299133 561.332092,270.998657 561.356628,267.707428 
	C561.410767,260.432800 562.181152,253.133987 561.794067,245.891251 
	C560.778809,226.892410 559.300049,207.918350 558.005981,188.934402 
z"/>
<path fill="#D92F12" opacity="1.000000" stroke="none" 
	d="
M557.844482,188.673981 
	C559.300049,207.918350 560.778809,226.892410 561.794067,245.891251 
	C562.181152,253.133987 561.410767,260.432800 561.356628,267.707428 
	C561.332092,270.998657 562.018799,274.299133 561.942322,277.585144 
	C561.791809,284.051819 561.014160,290.513977 561.067749,296.973236 
	C561.185608,311.177582 561.677063,325.378601 561.975342,339.581818 
	C562.051636,343.214294 561.409546,346.976807 562.183899,350.436401 
	C562.646729,352.504272 564.897644,354.901001 566.921692,355.714172 
	C569.740417,356.846649 573.098511,356.944427 576.226929,356.951202 
	C611.018372,357.026520 645.810120,356.999359 680.601746,356.998199 
	C687.866943,356.997955 695.134033,357.091858 702.396729,356.955383 
	C708.334961,356.843781 708.991821,355.960815 709.086975,350.231750 
	C709.122498,348.094727 709.665222,345.966125 709.983398,343.420654 
	C709.990234,343.007629 710.487000,342.990570 710.734680,342.970947 
	C711.497070,342.456818 712.011841,341.962311 712.686401,341.261993 
	C712.911804,347.072906 712.977356,353.089630 713.055542,359.579590 
	C712.888062,360.108368 712.708008,360.163971 712.262512,360.318237 
	C690.972229,360.337097 669.947266,360.257263 648.457031,360.248322 
	C645.943970,360.280457 643.896301,360.241638 640.983398,360.195740 
	C638.086121,360.238831 636.054077,360.289062 634.022095,360.339294 
	C632.618408,360.299042 631.214783,360.258789 628.932556,360.207947 
	C604.387329,360.238678 580.720703,360.280060 556.824341,360.240662 
	C556.594604,360.159851 556.111328,360.099884 556.111328,360.099884 
	C556.039856,343.459259 555.926147,326.818726 555.905762,310.178040 
	C555.863220,275.388245 556.147583,240.594284 555.634094,205.811844 
	C555.524597,198.396469 552.587585,191.022827 551.190857,183.350128 
	C552.614441,183.729431 553.800415,184.388550 554.986328,185.047668 
	C555.885193,186.169632 556.784119,187.291580 557.844482,188.673981 
z"/>
<path fill="#F63C20" opacity="1.000000" stroke="none" 
	d="
M506.835083,37.706772 
	C504.611084,37.669830 502.209778,37.343246 499.382080,36.686089 
	C497.417389,35.497311 495.867371,34.659458 494.342773,33.777687 
	C481.951416,26.611090 468.153778,23.276133 454.640717,19.154610 
	C452.010284,18.352327 449.528656,16.949724 446.859833,16.407331 
	C439.539764,14.919650 432.049072,14.166192 424.826080,12.333384 
	C416.096588,10.118314 407.509857,7.788591 398.414093,9.776723 
	C397.658325,9.941924 396.757019,9.685417 395.975525,9.450894 
	C388.490356,7.204604 380.929626,6.371564 373.206177,8.068276 
	C369.105774,8.969066 365.143402,9.583163 364.531128,15.217957 
	C364.202972,18.238226 362.237396,21.080576 361.010681,24.003208 
	C361.077667,18.459913 360.687164,12.848515 361.495819,7.415615 
	C361.732544,5.825244 365.379395,4.742466 367.767761,3.209845 
	C375.149323,3.166315 382.226410,3.339983 389.623352,3.309029 
	C390.406342,3.121543 390.869476,3.138680 391.675720,3.216237 
	C396.245117,4.175043 400.436859,5.310944 404.703552,5.931784 
	C426.192688,9.058626 447.472107,13.177808 468.035614,20.256674 
	C479.101410,24.066010 489.934235,28.571766 500.770935,33.010490 
	C502.966553,33.909805 504.707367,35.919392 506.835083,37.706772 
z"/>
<path fill="#EC4226" opacity="1.000000" stroke="none" 
	d="
M709.055664,310.386047 
	C709.427185,311.717621 709.782288,313.447479 710.107788,315.572510 
	C709.731812,314.239899 709.385559,312.512115 709.055664,310.386047 
z"/>
<path fill="#DB4C39" opacity="1.000000" stroke="none" 
	d="
M613.123901,111.207817 
	C613.288696,111.143982 613.543335,111.338295 613.883057,111.794975 
	C613.719116,111.855629 613.467651,111.658501 613.123901,111.207817 
z"/>
<path fill="#DB4C39" opacity="1.000000" stroke="none" 
	d="
M612.125610,110.197540 
	C612.293823,110.134697 612.543213,110.334862 612.868286,110.802757 
	C612.704834,110.857452 612.459106,110.654137 612.125610,110.197540 
z"/>
<path fill="#DB4C39" opacity="1.000000" stroke="none" 
	d="
M611.140747,109.302094 
	C611.307495,109.206070 611.560852,109.368843 611.882751,109.809296 
	C611.729370,109.875275 611.488037,109.699913 611.140747,109.302094 
z"/>
<path fill="#DA4936" opacity="1.000000" stroke="none" 
	d="
M607.161133,105.115311 
	C607.296997,105.103539 607.571716,105.317871 607.998962,105.746811 
	C607.867676,105.754761 607.583862,105.548088 607.161133,105.115311 
z"/>
<path fill="#EA9E0A" opacity="1.000000" stroke="none" 
	d="
M704.326233,439.052765 
	C704.278198,438.422546 704.417725,437.489044 704.776733,436.278076 
	C704.835449,436.916870 704.674683,437.833160 704.326233,439.052765 
z"/>
<path fill="#EA9E0A" opacity="1.000000" stroke="none" 
	d="
M710.292236,404.001587 
	C710.208252,403.416718 710.302795,402.548248 710.563782,401.406464 
	C710.643738,401.994751 710.557251,402.856354 710.292236,404.001587 
z"/>
<path fill="#EA9E0A" opacity="1.000000" stroke="none" 
	d="
M707.298035,423.072052 
	C707.237793,422.730316 707.355164,422.139435 707.649963,421.308350 
	C707.710144,421.653076 707.592834,422.237976 707.298035,423.072052 
z"/>
<path fill="#EA9E0A" opacity="1.000000" stroke="none" 
	d="
M708.294189,418.080933 
	C708.216064,417.753876 708.308044,417.183685 708.552612,416.374512 
	C708.624878,416.702942 708.544556,417.270386 708.294189,418.080933 
z"/>
<path fill="#EA9E0A" opacity="1.000000" stroke="none" 
	d="
M709.305969,411.076965 
	C709.233459,410.742035 709.336853,410.163239 709.603882,409.344574 
	C709.672302,409.680847 709.577087,410.256958 709.305969,411.076965 
z"/>
<path fill="#EA9E0A" opacity="1.000000" stroke="none" 
	d="
M705.282593,434.228394 
	C705.230774,434.098145 705.360718,433.775421 705.658020,433.257141 
	C705.705078,433.386383 705.584778,433.711182 705.282593,434.228394 
z"/>
<path fill="#EA9E0A" opacity="1.000000" stroke="none" 
	d="
M706.265625,429.182312 
	C706.217529,429.057648 706.344543,428.748352 706.633606,428.251770 
	C706.677368,428.375549 706.559082,428.686615 706.265625,429.182312 
z"/>
<path fill="#3B88ED" opacity="1.000000" stroke="none" 
	d="
M293.000122,406.350647 
	C351.642395,406.351440 409.784607,406.336578 467.926849,406.365540 
	C479.815491,406.371490 487.879761,412.253723 490.240540,422.419281 
	C492.865265,433.721283 485.512299,445.032196 474.108490,447.090057 
	C471.993683,447.471680 469.801636,447.556366 467.645172,447.557037 
	C394.509247,447.579803 321.373291,447.588135 248.237396,447.531128 
	C245.273682,447.528809 242.188370,447.283722 239.369659,446.445618 
	C230.476379,443.801392 224.614899,435.085175 225.129410,425.832062 
	C225.655548,416.369843 232.649475,408.449158 242.055786,406.823364 
	C244.173950,406.457275 246.362152,406.376709 248.518631,406.371155 
	C263.179047,406.333405 277.839600,406.350891 293.000122,406.350647 
z"/>
<path fill="#3987ED" opacity="1.000000" stroke="none" 
	d="
M306.999878,312.309174 
	C286.844482,312.308380 267.189056,312.335327 247.533752,312.296844 
	C234.372116,312.271088 225.225113,303.926697 225.119583,291.961304 
	C225.013565,279.938019 234.442810,271.231110 247.756104,271.227020 
	C321.213928,271.204346 394.671722,271.235016 468.129547,271.192535 
	C477.244019,271.187256 484.462097,274.453705 488.620056,282.795074 
	C492.276886,290.131165 491.521454,297.402161 486.701752,304.024384 
	C482.225311,310.174896 475.911591,312.373505 468.407471,312.353210 
	C431.095825,312.252319 393.783783,312.308350 356.471863,312.308929 
	C340.147888,312.309174 323.823883,312.309052 306.999878,312.309174 
z"/>
<path fill="#F63C20" opacity="1.000000" stroke="none" 
	d="
M554.985962,184.660309 
	C553.800415,184.388550 552.614441,183.729431 551.093201,182.981155 
	C540.611389,167.322067 526.286682,160.740479 507.701324,160.899445 
	C458.445007,161.320801 409.182709,161.038406 359.465698,160.928528 
	C364.275482,160.533768 369.539307,160.123901 374.810059,159.992172 
	C380.597382,159.847549 386.391083,159.959229 392.207153,158.993607 
	C389.529633,158.993607 386.847656,159.092911 384.175415,158.973694 
	C377.883545,158.693024 371.585022,158.444244 365.310974,157.921097 
	C360.530426,157.522491 360.276611,153.337799 360.236420,150.095276 
	C360.140564,142.365524 360.710754,134.627518 361.352661,126.555626 
	C362.165222,128.399368 362.927948,130.566422 363.032928,132.764877 
	C363.155334,135.329788 362.479248,137.929016 362.558289,140.500793 
	C362.652100,143.553329 363.181213,146.592484 363.521698,149.637451 
	C365.619141,153.287735 369.097778,154.646301 374.191528,154.306519 
	C382.581146,153.746902 391.068787,154.822662 399.519135,154.962509 
	C408.931732,155.118301 418.350891,155.115845 427.763306,154.955292 
	C433.511597,154.857254 439.252655,154.331680 444.996948,153.998123 
	C445.442749,153.998123 445.888550,153.998123 447.005432,154.228088 
	C452.129364,154.499191 456.585052,154.451996 461.034424,154.598099 
	C473.983246,155.023315 486.931061,155.488937 499.875977,156.018539 
	C504.311493,156.199997 508.733307,156.715378 513.168823,156.898148 
	C517.106384,157.060394 521.054260,156.973160 524.997559,156.996063 
	C524.997559,156.996063 525.000000,157.000000 525.170837,157.265442 
	C526.226379,158.018967 527.111023,158.507050 527.995728,158.995117 
	C527.995728,158.995117 528.000000,159.000000 528.188354,159.285172 
	C531.584045,161.044128 534.791382,162.517914 537.998718,163.991684 
	C545.568359,169.154556 552.307556,175.013031 554.985962,184.660309 
z"/>
<path fill="#F19C04" opacity="1.000000" stroke="none" 
	d="
M557.054016,360.321442 
	C580.720703,360.280060 604.387329,360.238678 628.515015,360.272949 
	C627.194580,360.898834 625.419556,361.900177 623.630798,361.925415 
	C612.981140,362.075714 602.298035,362.496063 591.685608,361.849915 
	C582.564209,361.294556 573.966309,363.365723 565.305115,365.295593 
	C564.007324,365.584747 562.470764,368.349030 562.398926,370.026337 
	C561.882141,382.093262 561.659851,394.174286 561.473083,406.252838 
	C561.422180,409.543457 561.965515,412.840454 561.974609,416.135254 
	C562.026611,435.051086 562.110352,453.967957 561.956726,472.882690 
	C561.870422,483.506409 560.613525,494.169678 561.233704,504.735962 
	C561.824585,514.804260 559.880920,524.091553 555.997925,533.064697 
	C554.468140,536.599731 551.610535,539.568298 549.236633,542.703247 
	C549.131592,542.841980 547.818848,542.066284 547.040588,541.400391 
	C547.012512,541.084229 547.004761,540.993713 547.231689,540.827026 
	C547.678284,540.412964 547.835205,540.130737 547.929321,539.813599 
	C550.511841,533.133545 553.094421,526.453491 556.053040,519.066528 
	C556.618164,516.059692 556.970093,513.760071 556.972412,511.459991 
	C557.023071,461.080505 557.034790,410.700958 557.054016,360.321442 
z"/>
<path fill="#217C2C" opacity="1.000000" stroke="none" 
	d="
M356.491150,560.316406 
	C353.837860,560.229919 351.180756,560.006592 348.523560,560.005554 
	C300.731812,559.987549 252.940094,560.002747 205.148376,559.978821 
	C203.005280,559.977722 200.862350,559.674622 198.753235,559.291138 
	C200.499924,558.870178 202.212738,558.670288 203.925552,558.470459 
	C206.682877,558.419861 209.440186,558.369263 213.007935,558.580444 
	C218.178879,558.733521 222.539398,558.624756 226.899933,558.515991 
	C228.689117,558.460083 230.478302,558.404114 233.067108,558.615601 
	C260.061279,558.934021 286.255829,558.987427 312.450409,559.018127 
	C312.923431,559.018677 313.396790,558.746826 313.869995,558.602051 
	C318.321411,558.529053 322.772797,558.456055 328.054260,558.646912 
	C337.925903,558.938354 346.967560,558.966003 356.004578,558.996704 
	C356.000000,558.999878 356.005280,558.992371 356.091309,559.311890 
	C356.263153,559.834778 356.348938,560.038025 356.434692,560.241272 
	C356.434692,560.241272 356.487274,560.283081 356.491150,560.316406 
z"/>
<path fill="#449E3D" opacity="1.000000" stroke="none" 
	d="
M156.167877,366.387299 
	C156.047363,364.740356 156.089020,363.477020 155.882401,361.980499 
	C156.195297,361.378601 156.756470,361.009918 157.665100,360.594086 
	C158.106491,381.705872 158.236984,402.864716 158.285675,424.023773 
	C158.357040,455.023163 158.369781,486.022736 158.318695,517.479858 
	C157.821472,515.722473 157.060059,513.507874 157.056702,511.292145 
	C156.987320,465.415863 157.013824,419.539398 156.975159,373.663025 
	C156.973221,371.365479 156.554611,369.068298 156.167877,366.387299 
z"/>
<path fill="#E89C28" opacity="1.000000" stroke="none" 
	d="
M556.824341,360.240662 
	C557.034790,410.700958 557.023071,461.080505 556.972412,511.459991 
	C556.970093,513.760071 556.618164,516.059692 556.186157,518.701538 
	C555.903687,496.443451 555.836121,473.843414 555.831360,451.243347 
	C555.825012,421.159424 555.867554,391.075531 556.000244,360.545746 
	C556.111328,360.099884 556.594604,360.159851 556.824341,360.240662 
z"/>
<path fill="#348B3F" opacity="1.000000" stroke="none" 
	d="
M313.431244,558.462280 
	C313.396790,558.746826 312.923431,559.018677 312.450409,559.018127 
	C286.255829,558.987427 260.061279,558.934021 233.504242,558.718628 
	C246.277527,558.452148 259.413147,558.299438 272.549103,558.261963 
	C286.030060,558.223511 299.511353,558.297668 313.431244,558.462280 
z"/>
<path fill="#348B3F" opacity="1.000000" stroke="none" 
	d="
M356.009186,558.993591 
	C346.967560,558.966003 337.925903,558.938354 328.518585,558.755615 
	C337.199860,558.491333 346.246796,558.382080 355.693726,558.449463 
	C356.093658,558.626038 356.009186,558.993591 356.009186,558.993591 
z"/>
<path fill="#348B3F" opacity="1.000000" stroke="none" 
	d="
M203.498169,558.347839 
	C202.212738,558.670288 200.499924,558.870178 198.404968,559.073120 
	C193.819977,557.867065 189.617126,556.658020 185.246796,555.130188 
	C191.076447,555.949280 197.073624,557.087280 203.498169,558.347839 
z"/>
<path fill="#348B3F" opacity="1.000000" stroke="none" 
	d="
M226.459656,558.390442 
	C222.539398,558.624756 218.178879,558.733521 213.459991,558.670349 
	C217.407547,558.420654 221.713470,558.342773 226.459656,558.390442 
z"/>
<path fill="#F1BD6B" opacity="1.000000" stroke="none" 
	d="
M514.690796,558.007996 
	C514.464966,558.248901 513.881470,558.404907 513.108398,558.407837 
	C513.390259,558.144226 513.861755,558.033630 514.690796,558.007996 
z"/>
<path fill="#348B3F" opacity="1.000000" stroke="none" 
	d="
M184.977570,554.612000 
	C184.592392,554.675293 184.020554,554.491516 183.244064,554.076721 
	C183.623245,554.018738 184.207077,554.191833 184.977570,554.612000 
z"/>
<path fill="#EA9E0A" opacity="1.000000" stroke="none" 
	d="
M547.716064,539.950073 
	C547.835205,540.130737 547.678284,540.412964 547.276733,540.821289 
	C547.230835,540.683655 547.366821,540.385132 547.716064,539.950073 
z"/>
<path fill="#348B3F" opacity="1.000000" stroke="none" 
	d="
M177.092728,550.707397 
	C176.903061,550.742249 176.621689,550.494263 176.188263,550.007874 
	C176.357819,549.987854 176.679428,550.206177 177.092728,550.707397 
z"/>
<path fill="#F1BD6B" opacity="1.000000" stroke="none" 
	d="
M356.004578,558.996704 
	C356.009186,558.993591 356.093658,558.626038 356.178833,558.456055 
	C356.263977,558.286011 356.743439,558.175476 356.967102,558.278687 
	C357.190765,558.381958 357.214844,558.725647 356.877075,558.822632 
	C356.361267,558.943848 356.183258,558.968140 356.005280,558.992371 
	C356.005280,558.992371 356.000000,558.999878 356.004578,558.996704 
z"/>
<path fill="#3586EC" opacity="1.000000" stroke="none" 
	d="
M93.477554,360.175049 
	C93.075439,360.314667 92.484344,360.394226 91.613953,360.353821 
	C91.985962,360.194214 92.637268,360.154602 93.477554,360.175049 
z"/>
<path fill="#F14023" opacity="1.000000" stroke="none" 
	d="
M444.655060,153.766937 
	C439.252655,154.331680 433.511597,154.857254 427.763306,154.955292 
	C418.350891,155.115845 408.931732,155.118301 399.519135,154.962509 
	C391.068787,154.822662 382.581146,153.746902 374.191528,154.306519 
	C369.097778,154.646301 365.619141,153.287735 363.521698,149.637451 
	C363.181213,146.592484 362.652100,143.553329 362.558289,140.500793 
	C362.479248,137.929016 363.155334,135.329788 363.032928,132.764877 
	C362.927948,130.566422 362.165222,128.399368 361.359314,126.106995 
	C361.029968,118.645149 361.034729,111.294708 361.405975,103.379387 
	C366.597504,98.286324 362.550293,93.613892 361.997131,88.998268 
	C361.995605,88.554619 361.994080,88.110962 362.227478,86.992126 
	C362.621552,78.745079 362.843597,71.173309 362.853821,63.601254 
	C362.854980,62.734150 361.671875,61.865456 361.037903,60.997498 
	C361.356445,56.949699 361.674988,52.901897 362.064728,48.063553 
	C361.766052,44.519207 361.396179,41.765408 361.026306,39.011604 
	C361.022522,36.638855 361.018768,34.266106 361.308472,31.357033 
	C361.406616,29.879105 361.211273,28.937496 361.015991,27.995888 
	C361.011780,26.931139 361.007568,25.866390 361.007019,24.402426 
	C362.237396,21.080576 364.202972,18.238226 364.531128,15.217957 
	C365.143402,9.583163 369.105774,8.969066 373.206177,8.068276 
	C380.929626,6.371564 388.490356,7.204604 395.975525,9.450894 
	C396.757019,9.685417 397.658325,9.941924 398.414093,9.776723 
	C407.509857,7.788591 416.096588,10.118314 424.826080,12.333384 
	C432.049072,14.166192 439.539764,14.919650 446.859833,16.407331 
	C449.528656,16.949724 452.010284,18.352327 454.640717,19.154610 
	C468.153778,23.276133 481.951416,26.611090 494.342773,33.777687 
	C495.867371,34.659458 497.417389,35.497311 498.976379,36.680069 
	C497.767242,36.897667 496.508972,36.920776 495.312714,36.659782 
	C491.460785,35.819347 487.513763,35.199577 483.831818,33.864643 
	C480.974243,32.828571 478.525452,30.716785 475.771484,29.327946 
	C473.235382,28.048983 470.604858,26.858438 467.889435,26.057945 
	C464.159393,24.958328 460.160431,24.663153 456.543762,23.309624 
	C449.453552,20.656141 442.080292,20.590706 434.729340,19.895071 
	C431.917175,19.628954 429.273804,17.885143 426.452026,17.352547 
	C420.385101,16.207468 414.253571,14.697013 408.146057,14.686084 
	C402.711945,14.676358 397.519989,16.204216 391.812225,14.476960 
	C386.779022,12.953848 381.083038,13.227915 375.700409,13.390945 
	C372.115936,13.499510 368.602081,15.214189 368.331940,19.483612 
	C367.704895,29.393415 366.810822,39.349266 367.204163,49.239555 
	C367.487640,56.367458 369.670410,63.419975 371.013977,70.504608 
	C371.043427,70.660027 371.270569,70.831482 371.234772,70.938118 
	C368.702332,78.479515 375.386108,86.263130 370.353088,94.021309 
	C369.023010,96.071632 369.882751,100.185974 370.871490,102.946159 
	C372.349152,107.071190 372.730286,110.801613 371.291016,115.009682 
	C370.553741,117.165161 371.125122,119.760918 371.061157,122.156517 
	C371.014771,123.894806 371.026520,125.649666 370.782898,127.364540 
	C370.276917,130.926361 369.113983,134.469711 369.136353,138.014862 
	C369.173401,143.884109 371.627655,146.025558 377.454895,145.962479 
	C381.358276,145.920242 384.701935,146.300674 386.345337,150.678818 
	C386.689026,151.594543 388.708374,152.250946 390.008881,152.354095 
	C392.136292,152.522842 394.305573,152.060974 396.460663,152.008667 
	C399.189117,151.942459 400.924652,151.389374 400.297668,147.916763 
	C399.630920,144.223724 402.423065,144.043671 405.092194,144.008087 
	C407.712433,143.973160 409.391388,144.713715 408.558533,147.817337 
	C407.660614,151.163300 409.644745,152.022537 412.363831,151.956726 
	C415.677490,151.876526 419.008911,151.267212 422.293030,151.484741 
	C429.646088,151.971817 436.974640,152.829178 444.655060,153.766937 
z"/>
<path fill="#F63C20" opacity="1.000000" stroke="none" 
	d="
M361.026123,61.466106 
	C361.671875,61.865456 362.854980,62.734150 362.853821,63.601254 
	C362.843597,71.173309 362.621552,78.745079 362.229431,86.659393 
	C361.664581,81.455658 361.277374,75.911995 361.023895,70.362228 
	C360.895844,67.558762 361.009796,64.744240 361.026123,61.466106 
z"/>
<path fill="#F63C20" opacity="1.000000" stroke="none" 
	d="
M361.766968,89.339157 
	C362.550293,93.613892 366.597504,98.286324 361.413940,102.911354 
	C361.215912,98.565483 361.376373,94.122765 361.766968,89.339157 
z"/>
<path fill="#F63C20" opacity="1.000000" stroke="none" 
	d="
M360.797424,39.329506 
	C361.396179,41.765408 361.766052,44.519207 362.069183,47.634918 
	C361.524475,45.213684 361.046509,42.430546 360.797424,39.329506 
z"/>
<path fill="#F63C20" opacity="1.000000" stroke="none" 
	d="
M361.009521,28.371960 
	C361.211273,28.937496 361.406616,29.879105 361.312134,30.912624 
	C361.015900,30.252369 361.009491,29.500200 361.009521,28.371960 
z"/>
<path fill="#42A442" opacity="1.000000" stroke="none" 
	d="
M22.141079,481.322632 
	C22.375153,481.539825 22.629908,482.043976 22.903790,482.839508 
	C22.669197,482.623779 22.415478,482.116669 22.141079,481.322632 
z"/>
<path fill="#F19C04" opacity="1.000000" stroke="none" 
	d="
M634.185669,360.636902 
	C636.054077,360.289062 638.086121,360.238831 640.548584,360.260620 
	C638.769104,360.533264 636.559143,360.733856 634.185669,360.636902 
z"/>
<path fill="#348B3F" opacity="1.000000" stroke="none" 
	d="
M356.091309,559.311890 
	C356.183258,558.968140 356.361267,558.943848 356.802734,558.978027 
	C356.962036,559.327698 356.857544,559.618774 356.593689,560.075500 
	C356.348938,560.038025 356.263153,559.834778 356.091309,559.311890 
z"/>
<path fill="#F14023" opacity="1.000000" stroke="none" 
	d="
M524.876648,156.642395 
	C521.054260,156.973160 517.106384,157.060394 513.168823,156.898148 
	C508.733307,156.715378 504.311493,156.199997 499.875977,156.018539 
	C486.931061,155.488937 473.983246,155.023315 461.034424,154.598099 
	C456.585052,154.451996 452.129364,154.499191 447.339783,154.228058 
	C454.190491,153.400909 461.117004,151.768524 468.635498,152.658234 
	C480.685242,154.084106 492.954224,153.685272 505.132416,153.982956 
	C509.780426,154.096573 514.448730,153.786285 519.076965,154.109894 
	C521.011230,154.245117 522.865234,155.527771 524.876648,156.642395 
z"/>
<path fill="#F14023" opacity="1.000000" stroke="none" 
	d="
M537.922729,163.641022 
	C534.791382,162.517914 531.584045,161.044128 528.191589,159.286713 
	C531.648193,159.602097 535.858887,158.895294 537.922729,163.641022 
z"/>
<path fill="#F14023" opacity="1.000000" stroke="none" 
	d="
M527.893555,158.681641 
	C527.111023,158.507050 526.226379,158.018967 525.173279,157.266052 
	C525.933716,157.456879 526.862549,157.912521 527.893555,158.681641 
z"/>
</svg>